<svg width="16" height="16" viewBox="0 0 16 16" fill="none" xmlns="http://www.w3.org/2000/svg">
<g id="arrow-right-contained-02">
<path id="Icon" d="M9.01813 4.86821C8.75296 4.55 8.28003 4.50701 7.96183 4.77218C7.64362 5.03736 7.60063 5.51028 7.8658 5.82849L9.01813 4.86821ZM10.6517 8.00002L11.2279 8.48016C11.4596 8.20202 11.4596 7.79801 11.2279 7.51988L10.6517 8.00002ZM7.8658 10.1715C7.60062 10.4898 7.64362 10.9627 7.96183 11.2279C8.28003 11.493 8.75296 11.45 9.01813 11.1318L7.8658 10.1715ZM5.34835 7.25002C4.93414 7.25002 4.59835 7.5858 4.59835 8.00002C4.59835 8.41423 4.93414 8.75002 5.34835 8.75002L5.34835 7.25002ZM7.8658 5.82849L10.0755 8.48016L11.2279 7.51988L9.01813 4.86821L7.8658 5.82849ZM10.0755 7.51988L7.8658 10.1715L9.01813 11.1318L11.2279 8.48016L10.0755 7.51988ZM10.6517 7.25002L5.34835 7.25002L5.34835 8.75002L10.6517 8.75002V7.25002ZM11.7123 4.28769C13.7626 6.33794 13.7626 9.66206 11.7123 11.7123L12.773 12.773C15.409 10.1369 15.409 5.86307 12.773 3.22703L11.7123 4.28769ZM11.7123 11.7123C9.66206 13.7626 6.33794 13.7626 4.28769 11.7123L3.22703 12.773C5.86307 15.409 10.1369 15.409 12.773 12.773L11.7123 11.7123ZM4.28769 11.7123C2.23744 9.66206 2.23744 6.33794 4.28769 4.28769L3.22703 3.22703C0.59099 5.86307 0.59099 10.1369 3.22703 12.773L4.28769 11.7123ZM4.28769 4.28769C6.33794 2.23744 9.66206 2.23744 11.7123 4.28769L12.773 3.22703C10.1369 0.59099 5.86307 0.59099 3.22703 3.22703L4.28769 4.28769Z" fill="#343A40"/>
</g>
</svg>
