<svg width="21" height="20" viewBox="0 0 21 20" fill="none" xmlns="http://www.w3.org/2000/svg">
<g id="ep:bell-filled">
<path id="Vector" d="M13 16.2508C13 16.9139 12.7366 17.5497 12.2678 18.0186C11.7989 18.4874 11.163 18.7508 10.5 18.7508C9.83696 18.7508 9.20107 18.4874 8.73223 18.0186C8.26339 17.5497 8 16.9139 8 16.2508H13ZM16.75 15.0008H3.125C2.92609 15.0008 2.73532 14.9218 2.59467 14.7812C2.45402 14.6405 2.375 14.4497 2.375 14.2508C2.375 14.0519 2.45402 13.8611 2.59467 13.7205C2.73532 13.5798 2.92609 13.5008 3.125 13.5008H4.25V8.75082C4.25 5.72582 6.4 3.20082 9.25625 2.62582C9.2388 2.45201 9.25798 2.27648 9.31254 2.11054C9.3671 1.9446 9.45584 1.79193 9.57303 1.66239C9.69022 1.53285 9.83325 1.42931 9.99292 1.35845C10.1526 1.28759 10.3253 1.25098 10.5 1.25098C10.6747 1.25098 10.8474 1.28759 11.0071 1.35845C11.1667 1.42931 11.3098 1.53285 11.427 1.66239C11.5442 1.79193 11.6329 1.9446 11.6875 2.11054C11.742 2.27648 11.7612 2.45201 11.7437 2.62582C13.1564 2.91315 14.4264 3.67979 15.3386 4.79596C16.2509 5.91213 16.7495 7.30925 16.75 8.75082V13.5008H17.875C18.0739 13.5008 18.2647 13.5798 18.4053 13.7205C18.546 13.8611 18.625 14.0519 18.625 14.2508C18.625 14.4497 18.546 14.6405 18.4053 14.7812C18.2647 14.9218 18.0739 15.0008 17.875 15.0008H16.75Z" fill="white"/>
</g>
</svg>
