<svg width="16" height="18" viewBox="0 0 16 18" fill="none" xmlns="http://www.w3.org/2000/svg">
<g id="charm:menu-meatball">
<g id="Group">
<path id="Vector" d="M2.5 9.91604C2.91421 9.91604 3.25 9.52538 3.25 9.04347C3.25 8.56156 2.91421 8.1709 2.5 8.1709C2.08579 8.1709 1.75 8.56156 1.75 9.04347C1.75 9.52538 2.08579 9.91604 2.5 9.91604Z" stroke="black" stroke-width="1.5" stroke-linecap="round" stroke-linejoin="round"/>
<path id="Vector_2" d="M8 9.91604C8.41421 9.91604 8.75 9.52538 8.75 9.04347C8.75 8.56156 8.41421 8.1709 8 8.1709C7.58579 8.1709 7.25 8.56156 7.25 9.04347C7.25 9.52538 7.58579 9.91604 8 9.91604Z" stroke="black" stroke-width="1.5" stroke-linecap="round" stroke-linejoin="round"/>
<path id="Vector_3" d="M13.5 9.91604C13.9142 9.91604 14.25 9.52538 14.25 9.04347C14.25 8.56156 13.9142 8.1709 13.5 8.1709C13.0858 8.1709 12.75 8.56156 12.75 9.04347C12.75 9.52538 13.0858 9.91604 13.5 9.91604Z" stroke="black" stroke-width="1.5" stroke-linecap="round" stroke-linejoin="round"/>
</g>
</g>
</svg>
