<svg width="129" height="101" viewBox="0 0 129 101" fill="none" xmlns="http://www.w3.org/2000/svg">
<path fill-rule="evenodd" clip-rule="evenodd" d="M47.4654 26.1218L44.4795 25.8312C44.5448 25.1602 44.5783 24.479 44.5783 23.7892C44.5783 23.0993 44.5448 22.4181 44.4795 21.7471L47.4654 21.4565C47.5401 22.224 47.5783 23.0021 47.5783 23.7892C47.5783 24.5762 47.5401 25.3544 47.4654 26.1218ZM46.5598 16.8812L43.6887 17.7511C43.2909 16.4379 42.7663 15.1794 42.129 13.9895L44.7736 12.573C45.5032 13.9352 46.104 15.3767 46.5598 16.8812ZM42.1791 8.69724C41.19 7.49336 40.085 6.38832 38.8811 5.39919L36.9766 7.71715C38.0295 8.58225 38.9961 9.5488 39.8612 10.6017L42.1791 8.69724ZM35.0053 2.80477L33.5888 5.44931C32.3989 4.81198 31.1404 4.28745 29.8273 3.88961L30.6971 1.01849C32.2016 1.47431 33.6431 2.07516 35.0053 2.80477ZM26.1218 0.112911L25.8312 3.0988C25.1602 3.0335 24.479 3 23.7892 3C23.0993 3 22.4181 3.0335 21.7471 3.0988L21.4565 0.112911C22.224 0.0382221 23.0021 0 23.7892 0C24.5762 0 25.3544 0.0382221 26.1218 0.112911ZM16.8812 1.01849L17.7511 3.88961C16.4379 4.28745 15.1794 4.81199 13.9895 5.44932L12.573 2.80477C13.9352 2.07516 15.3767 1.47431 16.8812 1.01849ZM8.69724 5.39919L10.6017 7.71715C9.5488 8.58225 8.58225 9.54881 7.71715 10.6017L5.39919 8.69725C6.38832 7.49336 7.49336 6.38832 8.69724 5.39919ZM2.80477 12.573L5.44931 13.9895C4.81198 15.1794 4.28745 16.4379 3.88961 17.7511L1.01849 16.8812C1.47431 15.3767 2.07516 13.9352 2.80477 12.573ZM0.112911 21.4565C0.0382221 22.224 0 23.0021 0 23.7892C0 24.5762 0.0382221 25.3544 0.112911 26.1218L3.0988 25.8312C3.0335 25.1602 3 24.479 3 23.7892C3 23.0993 3.0335 22.4181 3.0988 21.7471L0.112911 21.4565ZM1.01849 30.6971L3.88961 29.8273C4.28745 31.1404 4.81199 32.3989 5.44932 33.5888L2.80477 35.0053C2.07516 33.6431 1.47431 32.2016 1.01849 30.6971ZM5.39919 38.8811L7.71715 36.9766C8.58225 38.0295 9.54881 38.9961 10.6017 39.8612L8.69725 42.1791C7.49336 41.19 6.38832 40.085 5.39919 38.8811ZM12.573 44.7736L13.9895 42.129C15.1794 42.7663 16.4379 43.2909 17.7511 43.6887L16.8812 46.5598C15.3767 46.104 13.9352 45.5032 12.573 44.7736ZM21.4565 47.4654L21.7471 44.4795C22.4181 44.5448 23.0993 44.5783 23.7892 44.5783C24.479 44.5783 25.1602 44.5448 25.8312 44.4795L26.1218 47.4654C25.3544 47.5401 24.5762 47.5783 23.7892 47.5783C23.0021 47.5783 22.224 47.5401 21.4565 47.4654ZM30.6971 46.5598L29.8273 43.6887C31.1404 43.2909 32.3989 42.7663 33.5888 42.129L35.0053 44.7736C33.6431 45.5032 32.2016 46.104 30.6971 46.5598ZM38.8811 42.1791L36.9766 39.8612C38.0295 38.9961 38.9961 38.0295 39.8612 36.9766L42.1791 38.8811C41.19 40.085 40.085 41.19 38.8811 42.1791ZM44.7736 35.0053L42.129 33.5888C42.7663 32.3989 43.2909 31.1404 43.6887 29.8273L46.5598 30.6971C46.104 32.2016 45.5032 33.6431 44.7736 35.0053Z" fill="#DEE2E6"/>
<path fill-rule="evenodd" clip-rule="evenodd" d="M128.014 79.5437L125.028 79.2531C125.094 78.5821 125.127 77.9009 125.127 77.211C125.127 76.5212 125.094 75.84 125.028 75.169L128.014 74.8784C128.089 75.6458 128.127 76.424 128.127 77.211C128.127 77.9981 128.089 78.7762 128.014 79.5437ZM127.109 70.3031L124.238 71.1729C123.84 69.8598 123.315 68.6013 122.678 67.4114L125.322 65.9949C126.052 67.3571 126.653 68.7986 127.109 70.3031ZM122.728 62.1191C121.739 60.9152 120.634 59.8102 119.43 58.8211L117.525 61.139C118.578 62.0041 119.545 62.9707 120.41 64.0236L122.728 62.1191ZM115.554 56.2266L114.138 58.8712C112.948 58.2339 111.689 57.7093 110.376 57.3115L111.246 54.4404C112.75 54.8962 114.192 55.497 115.554 56.2266ZM106.671 53.5348L106.38 56.5207C105.709 56.4554 105.028 56.4219 104.338 56.4219C103.648 56.4219 102.967 56.4554 102.296 56.5207L102.005 53.5348C102.773 53.4601 103.551 53.4219 104.338 53.4219C105.125 53.4219 105.903 53.4601 106.671 53.5348ZM97.43 54.4404L98.2999 57.3115C96.9868 57.7093 95.7282 58.2339 94.5383 58.8712L93.1219 56.2266C94.484 55.497 95.9255 54.8962 97.43 54.4404ZM89.2461 58.8211L91.1506 61.139C90.0976 62.0041 89.1311 62.9707 88.266 64.0236L85.948 62.1191C86.9371 60.9152 88.0422 59.8102 89.2461 58.8211ZM83.3536 65.9949L85.9981 67.4114C85.3608 68.6013 84.8363 69.8598 84.4384 71.1729L81.5673 70.3031C82.0231 68.7986 82.624 67.3571 83.3536 65.9949ZM80.6617 74.8784C80.5871 75.6458 80.5488 76.424 80.5488 77.211C80.5488 77.9981 80.5871 78.7762 80.6617 79.5437L83.6476 79.2531C83.5823 78.5821 83.5488 77.9009 83.5488 77.211C83.5488 76.5212 83.5823 75.84 83.6476 75.169L80.6617 74.8784ZM81.5673 84.119L84.4384 83.2491C84.8363 84.5623 85.3608 85.8208 85.9981 87.0107L83.3536 88.4272C82.624 87.065 82.0231 85.6235 81.5673 84.119ZM85.948 92.303L88.266 90.3985C89.1311 91.4514 90.0976 92.418 91.1506 93.2831L89.2461 95.601C88.0422 94.6119 86.9372 93.5069 85.948 92.303ZM93.1219 98.1954L94.5383 95.5509C95.7282 96.1882 96.9868 96.7128 98.2999 97.1106L97.43 99.9817C95.9255 99.5259 94.484 98.925 93.1219 98.1954ZM102.005 100.887L102.296 97.9014C102.967 97.9667 103.648 98.0002 104.338 98.0002C105.028 98.0002 105.709 97.9667 106.38 97.9014L106.671 100.887C105.903 100.962 105.125 101 104.338 101C103.551 101 102.773 100.962 102.005 100.887ZM111.246 99.9817L110.376 97.1106C111.689 96.7128 112.948 96.1882 114.138 95.5509L115.554 98.1954C114.192 98.925 112.75 99.5259 111.246 99.9817ZM119.43 95.601L117.525 93.2831C118.578 92.418 119.545 91.4514 120.41 90.3985L122.728 92.303C121.739 93.5068 120.634 94.6119 119.43 95.601ZM125.322 88.4272L122.678 87.0107C123.315 85.8208 123.84 84.5623 124.238 83.2491L127.109 84.119C126.653 85.6235 126.052 87.065 125.322 88.4272Z" fill="#DEE2E6"/>
<path fill-rule="evenodd" clip-rule="evenodd" d="M51.3344 0H54.3344V2.37892H53.9845V3H51.3344V0ZM51.3344 44.5783V47.5783H54.3344V45.1994H53.9845V44.5783H51.3344ZM101.688 47.5783V44.5783H104.338C105.028 44.5783 105.709 44.5448 106.38 44.4795L106.671 47.4654C105.903 47.5401 105.125 47.5783 104.338 47.5783H101.688ZM111.246 46.5598L110.376 43.6887C111.69 43.2909 112.948 42.7663 114.138 42.129L115.554 44.7736C114.192 45.5032 112.751 46.104 111.246 46.5598ZM119.43 42.1791L117.526 39.8612C118.579 38.9961 119.545 38.0295 120.41 36.9766L122.728 38.8811C121.739 40.085 120.634 41.19 119.43 42.1791ZM125.323 35.0053C126.052 33.6431 126.653 32.2016 127.109 30.6971L124.238 29.8273C123.84 31.1404 123.315 32.3989 122.678 33.5888L125.323 35.0053ZM128.015 26.1218L125.029 25.8312C125.094 25.1602 125.127 24.479 125.127 23.7892C125.127 23.0993 125.094 22.4181 125.029 21.7471L128.015 21.4565C128.089 22.224 128.127 23.0021 128.127 23.7892C128.127 24.5762 128.089 25.3544 128.015 26.1218ZM127.109 16.8812L124.238 17.7511C123.84 16.4379 123.315 15.1794 122.678 13.9895L125.323 12.573C126.052 13.9352 126.653 15.3767 127.109 16.8812ZM122.728 8.69725L120.41 10.6017C119.545 9.54881 118.579 8.58225 117.526 7.71715L119.43 5.39919C120.634 6.38832 121.739 7.49336 122.728 8.69725ZM115.554 2.80477L114.138 5.44931C112.948 4.81198 111.69 4.28745 110.376 3.88961L111.246 1.01849C112.751 1.47431 114.192 2.07516 115.554 2.80477ZM59.2849 0V3H64.5853V0H59.2849ZM69.8857 0V3H75.1861V0H69.8857ZM80.4865 0V3H85.7869V0H80.4865ZM91.0873 0V3H96.3877V0H91.0873ZM101.688 0V3H104.338C105.028 3 105.709 3.0335 106.38 3.0988L106.671 0.112911C105.903 0.0382219 105.125 0 104.338 0H101.688ZM96.3877 47.5783V44.5783H91.0873V47.5783H96.3877ZM85.7869 47.5783V44.5783H80.4865V47.5783H85.7869ZM75.1861 47.5783V44.5783H69.8857V47.5783H75.1861ZM64.5853 47.5783V44.5783H59.2849V47.5783H64.5853ZM51.3344 40.4416H54.3344V35.6838H51.3344V40.4416ZM51.3344 30.9259H54.3344V26.1681H51.3344V30.9259ZM51.3344 21.4102H54.3344V16.6524H51.3344V21.4102ZM51.3344 11.8946H54.3344V7.13675H51.3344V11.8946Z" fill="#DEE2E6"/>
<path fill-rule="evenodd" clip-rule="evenodd" d="M21.4565 100.887L21.7471 97.9014C22.4181 97.9667 23.0993 98.0002 23.7892 98.0002H26.2237V101H23.7892C23.0021 101 22.224 100.962 21.4565 100.887ZM50.5694 101V98.0002H53.0039C53.6938 98.0002 54.375 97.9667 55.046 97.9014L55.3366 100.887C54.5691 100.962 53.791 101 53.0039 101H50.5694ZM59.9119 99.9817L59.042 97.1106C60.3552 96.7128 61.6137 96.1882 62.8036 95.5509L64.2201 98.1954C62.8579 98.925 61.4164 99.5259 59.9119 99.9817ZM68.0958 95.601L66.1914 93.2831C67.2443 92.418 68.2108 91.4514 69.0759 90.3985L71.3939 92.303C70.4048 93.5069 69.2997 94.6119 68.0958 95.601ZM73.9883 88.4272L71.3438 87.0107C71.9811 85.8208 72.5056 84.5623 72.9035 83.2491L75.7746 84.119C75.3188 85.6235 74.7179 87.065 73.9883 88.4272ZM76.6802 79.5437L73.6943 79.2531C73.7596 78.5821 73.7931 77.9009 73.7931 77.211C73.7931 76.5212 73.7596 75.84 73.6943 75.169L76.6802 74.8784C76.7549 75.6458 76.7931 76.424 76.7931 77.211C76.7931 77.9981 76.7549 78.7762 76.6802 79.5437ZM75.7746 70.3031L72.9035 71.1729C72.5057 69.8598 71.9811 68.6013 71.3438 67.4114L73.9883 65.9949C74.7179 67.3571 75.3188 68.7986 75.7746 70.3031ZM71.3939 62.1191L69.076 64.0236C68.2109 62.9707 67.2443 62.0041 66.1914 61.139L68.0959 58.8211C69.2998 59.8102 70.4048 60.9152 71.3939 62.1191ZM64.2201 56.2266L62.8036 58.8712C61.6137 58.2339 60.3552 57.7093 59.042 57.3115L59.9119 54.4404C61.4164 54.8962 62.8579 55.497 64.2201 56.2266ZM26.2237 53.4219H23.7892C23.0021 53.4219 22.224 53.4601 21.4565 53.5348L21.7471 56.5207C22.4181 56.4554 23.0993 56.4219 23.7892 56.4219H26.2237V53.4219ZM16.8812 54.4404L17.7511 57.3115C16.4379 57.7093 15.1794 58.2339 13.9895 58.8712L12.573 56.2266C13.9352 55.497 15.3767 54.8962 16.8812 54.4404ZM8.69725 58.8211L10.6017 61.139C9.54881 62.0041 8.58225 62.9707 7.71715 64.0236L5.39919 62.1191C6.38832 60.9152 7.49336 59.8102 8.69725 58.8211ZM2.80477 65.9949L5.44932 67.4114C4.81199 68.6013 4.28745 69.8598 3.88961 71.1729L1.01849 70.3031C1.47432 68.7986 2.07516 67.3571 2.80477 65.9949ZM0.112911 74.8784L3.0988 75.169C3.0335 75.84 3 76.5212 3 77.211C3 77.9009 3.0335 78.5821 3.0988 79.2531L0.112911 79.5437C0.0382218 78.7762 0 77.9981 0 77.211C0 76.424 0.0382221 75.6458 0.112911 74.8784ZM1.01849 84.119L3.88961 83.2491C4.28745 84.5623 4.81198 85.8208 5.44931 87.0107L2.80476 88.4272C2.07516 87.065 1.47431 85.6235 1.01849 84.119ZM5.39918 92.303L7.71714 90.3985C8.58224 91.4514 9.5488 92.418 10.6017 93.2831L8.69724 95.601C7.49335 94.6119 6.38831 93.5068 5.39918 92.303ZM16.8812 99.9817L17.7511 97.1106C16.4379 96.7128 15.1794 96.1882 13.9895 95.5509L12.573 98.1954C13.9352 98.925 15.3767 99.5259 16.8812 99.9817ZM31.0929 53.4219V56.4219H35.962V53.4219H31.0929ZM40.8311 53.4219V56.4219H45.7003V53.4219H40.8311ZM50.5694 53.4219V56.4219H53.0039C53.6938 56.4219 54.375 56.4554 55.046 56.5207L55.3366 53.5348C54.5691 53.4601 53.791 53.4219 53.0039 53.4219H50.5694ZM45.7002 101V98.0002H40.8311V101H45.7002ZM35.962 101V98.0002H31.0928V101H35.962Z" fill="#DEE2E6"/>
</svg>
