<svg width="16" height="16" viewBox="0 0 16 16" fill="none" xmlns="http://www.w3.org/2000/svg">
<g id="file-04">
<path id="Icon" d="M10.0001 1.59961V3.99961C10.0001 4.44144 10.3582 4.79961 10.8001 4.79961H13.2001M12.0001 2.79961C11.644 2.48104 11.2745 2.10319 11.0413 1.8578C10.8861 1.6945 10.6716 1.59961 10.4463 1.59961H4.39987C3.51621 1.59961 2.79987 2.31595 2.79987 3.1996L2.7998 12.7996C2.7998 13.6832 3.51614 14.3996 4.3998 14.3996L11.5998 14.3996C12.4835 14.3996 13.1998 13.6833 13.1998 12.7996L13.2 4.31816C13.2001 4.1136 13.122 3.91697 12.98 3.7697C12.7175 3.49737 12.2791 3.04929 12.0001 2.79961Z" stroke="#495057" stroke-width="1.5" stroke-linecap="round" stroke-linejoin="round"/>
</g>
</svg>
