<svg width="18" height="18" viewBox="0 0 18 18" fill="none" xmlns="http://www.w3.org/2000/svg">
<g id="ic_Bold">
<path id="Vector" d="M5.20132 3.33C5.30578 3.22541 5.42982 3.14244 5.56636 3.08582C5.7029 3.02919 5.84926 3.00003 5.99707 3H9.28432C11.2628 3 12.7501 4.6365 12.7501 6.46875C12.7481 7.19037 12.5213 7.89345 12.1013 8.48025C12.9091 9.1005 13.5008 10.0702 13.5008 11.34C13.5001 13.674 11.4751 15 9.84007 15H6.00007C5.7017 15 5.41555 14.8815 5.20458 14.6705C4.9936 14.4595 4.87507 14.1734 4.87507 13.875L4.87207 4.125C4.87207 3.82725 4.98982 3.54075 5.20132 3.33ZM7.12507 7.6875H9.28507C9.96232 7.6875 10.5001 7.1175 10.5001 6.46875C10.5001 5.82 9.96082 5.25 9.28507 5.25H7.12357L7.12507 7.6875ZM7.12507 9.9375V12.75H9.84007C10.4956 12.75 11.2501 12.1845 11.2501 11.34C11.2501 10.4925 10.5196 9.9375 9.84007 9.9375H7.12507Z" fill="#868E96"/>
</g>
</svg>
