<svg width="18" height="18" viewBox="0 0 18 18" fill="none" xmlns="http://www.w3.org/2000/svg">
<path d="M16.625 7.78125V14.5312C16.625 14.755 16.5361 14.9696 16.3779 15.1279C16.2196 15.2861 16.005 15.375 15.7812 15.375C15.5575 15.375 15.3429 15.2861 15.1846 15.1279C15.0264 14.9696 14.9375 14.755 14.9375 14.5312V9.35766L14.562 9.60938C14.4697 9.67087 14.3662 9.71358 14.2573 9.73506C14.1485 9.75653 14.0365 9.75637 13.9277 9.73456C13.8189 9.71275 13.7155 9.66973 13.6234 9.60796C13.5312 9.54619 13.4521 9.46687 13.3906 9.37453C13.3291 9.2822 13.2864 9.17865 13.2649 9.06981C13.2435 8.96097 13.2436 8.84897 13.2654 8.74019C13.2872 8.63142 13.3303 8.528 13.392 8.43585C13.4538 8.3437 13.5331 8.26462 13.6255 8.20312L15.313 7.07812C15.4401 6.99329 15.5879 6.94459 15.7406 6.93723C15.8933 6.92986 16.0451 6.96411 16.1798 7.03631C16.3145 7.10851 16.4271 7.21595 16.5055 7.34715C16.5839 7.47836 16.6252 7.6284 16.625 7.78125ZM10.1562 3C9.93247 3 9.71786 3.08889 9.55963 3.24713C9.4014 3.40536 9.3125 3.61997 9.3125 3.84375V7.21875H3.6875V3.84375C3.6875 3.61997 3.59861 3.40536 3.44037 3.24713C3.28214 3.08889 3.06753 3 2.84375 3C2.61997 3 2.40536 3.08889 2.24713 3.24713C2.08889 3.40536 2 3.61997 2 3.84375V12.2812C2 12.505 2.08889 12.7196 2.24713 12.8779C2.40536 13.0361 2.61997 13.125 2.84375 13.125C3.06753 13.125 3.28214 13.0361 3.44037 12.8779C3.59861 12.7196 3.6875 12.505 3.6875 12.2812V8.90625H9.3125V12.2812C9.3125 12.505 9.4014 12.7196 9.55963 12.8779C9.71786 13.0361 9.93247 13.125 10.1562 13.125C10.38 13.125 10.5946 13.0361 10.7529 12.8779C10.9111 12.7196 11 12.505 11 12.2812V3.84375C11 3.61997 10.9111 3.40536 10.7529 3.24713C10.5946 3.08889 10.38 3 10.1562 3Z" fill="#868E96"/>
</svg>
