<svg width="18" height="18" viewBox="0 0 18 18" fill="none" xmlns="http://www.w3.org/2000/svg">
<path d="M10 3.84375V12.2812C10 12.505 9.9111 12.7196 9.75287 12.8779C9.59464 13.0361 9.38003 13.125 9.15625 13.125C8.93247 13.125 8.71786 13.0361 8.55963 12.8779C8.4014 12.7196 8.3125 12.505 8.3125 12.2812V8.90625H2.6875V12.2812C2.6875 12.505 2.59861 12.7196 2.44037 12.8779C2.28214 13.0361 2.06753 13.125 1.84375 13.125C1.61997 13.125 1.40536 13.0361 1.24713 12.8779C1.08889 12.7196 1 12.505 1 12.2812V3.84375C1 3.61997 1.08889 3.40536 1.24713 3.24713C1.40536 3.08889 1.61997 3 1.84375 3C2.06753 3 2.28214 3.08889 2.44037 3.24713C2.59861 3.40536 2.6875 3.61997 2.6875 3.84375V7.21875H8.3125V3.84375C8.3125 3.61997 8.4014 3.40536 8.55963 3.24713C8.71786 3.08889 8.93247 3 9.15625 3C9.38003 3 9.59464 3.08889 9.75287 3.24713C9.9111 3.40536 10 3.61997 10 3.84375ZM15.9062 13.6875H14.2188L16.2395 10.9924C16.4592 10.7009 16.6132 10.3654 16.6911 10.0087C16.7689 9.65212 16.7687 9.28288 16.6904 8.92636C16.6122 8.56984 16.4577 8.23445 16.2377 7.94321C16.0177 7.65197 15.7373 7.41175 15.4157 7.23904C15.0942 7.06634 14.739 6.96522 14.3747 6.94262C14.0104 6.92002 13.6455 6.97649 13.3051 7.10813C12.9646 7.23978 12.6567 7.4435 12.4024 7.70533C12.148 7.96715 11.9533 8.28088 11.8316 8.625C11.757 8.836 11.7693 9.06799 11.8658 9.26994C11.9622 9.47189 12.135 9.62724 12.346 9.70184C12.557 9.77643 12.789 9.76415 12.9909 9.66769C13.1929 9.57123 13.3482 9.3985 13.4228 9.1875C13.4512 9.10611 13.4923 9.0297 13.5445 8.96109C13.6104 8.87045 13.6937 8.79385 13.7895 8.73576C13.8854 8.67768 13.9919 8.63927 14.1027 8.62278C14.2136 8.6063 14.3266 8.61206 14.4352 8.63975C14.5438 8.66743 14.6458 8.71647 14.7353 8.78401C14.8247 8.85154 14.8998 8.93622 14.9562 9.0331C15.0125 9.12998 15.049 9.23712 15.0635 9.34826C15.078 9.4594 15.0702 9.57231 15.0406 9.6804C15.0109 9.78849 14.9601 9.8896 14.8909 9.97781L11.8562 14.025C11.7622 14.1504 11.705 14.2994 11.6909 14.4555C11.6768 14.6115 11.7065 14.7684 11.7766 14.9086C11.8467 15.0487 11.9544 15.1666 12.0877 15.249C12.221 15.3314 12.3746 15.375 12.5312 15.375H15.9062C16.13 15.375 16.3446 15.2861 16.5029 15.1279C16.6611 14.9696 16.75 14.755 16.75 14.5312C16.75 14.3075 16.6611 14.0929 16.5029 13.9346C16.3446 13.7764 16.13 13.6875 15.9062 13.6875Z" fill="#868E96"/>
</svg>
