<svg width="18" height="18" viewBox="0 0 18 18" fill="none" xmlns="http://www.w3.org/2000/svg">
<g id="ic_H3">
<path id="Vector" d="M16.75 12.5625C16.7501 13.1212 16.5837 13.6673 16.2722 14.1311C15.9606 14.5949 15.518 14.9554 15.0007 15.1666C14.4835 15.3778 13.915 15.4302 13.3679 15.317C12.8208 15.2039 12.3197 14.9303 11.9287 14.5312C11.8481 14.4528 11.784 14.359 11.7403 14.2554C11.6965 14.1518 11.6738 14.0405 11.6737 13.928C11.6735 13.8156 11.6958 13.7042 11.7393 13.6005C11.7828 13.4968 11.8466 13.4028 11.927 13.3241C12.0073 13.2454 12.1026 13.1836 12.2072 13.1422C12.3118 13.1009 12.4236 13.0808 12.536 13.0833C12.6484 13.0858 12.7593 13.1107 12.8619 13.1566C12.9646 13.2026 13.057 13.2685 13.1338 13.3507C13.2637 13.483 13.4243 13.5811 13.6013 13.6364C13.7783 13.6916 13.9661 13.7023 14.1482 13.6674C14.3303 13.6325 14.501 13.5532 14.645 13.4364C14.789 13.3197 14.902 13.1691 14.9738 12.9982C15.0456 12.8273 15.074 12.6412 15.0566 12.4567C15.0391 12.2721 14.9763 12.0947 14.8738 11.9402C14.7712 11.7858 14.6321 11.659 14.4687 11.5713C14.3054 11.4836 14.1229 11.4377 13.9375 11.4375C13.7832 11.4375 13.6318 11.3951 13.4999 11.3151C13.368 11.235 13.2605 11.1203 13.1892 10.9834C13.118 10.8465 13.0856 10.6927 13.0957 10.5387C13.1057 10.3847 13.1578 10.2364 13.2463 10.11L14.2891 8.625H12.5312C12.3075 8.625 12.0929 8.53611 11.9346 8.37787C11.7764 8.21964 11.6875 8.00503 11.6875 7.78125C11.6875 7.55747 11.7764 7.34286 11.9346 7.18463C12.0929 7.02639 12.3075 6.9375 12.5312 6.9375H15.9062C16.0606 6.93752 16.2119 6.97987 16.3439 7.05994C16.4758 7.14 16.5832 7.25472 16.6545 7.3916C16.7258 7.52848 16.7581 7.68228 16.7481 7.83628C16.738 7.99027 16.6859 8.13856 16.5974 8.265L15.3079 10.1072C15.745 10.3511 16.1091 10.7072 16.3626 11.1389C16.6161 11.5705 16.7499 12.0619 16.75 12.5625ZM9.15625 3C8.93247 3 8.71786 3.08889 8.55963 3.24713C8.4014 3.40536 8.3125 3.61997 8.3125 3.84375V7.21875H2.6875V3.84375C2.6875 3.61997 2.59861 3.40536 2.44037 3.24713C2.28214 3.08889 2.06753 3 1.84375 3C1.61997 3 1.40536 3.08889 1.24713 3.24713C1.08889 3.40536 1 3.61997 1 3.84375V12.2812C1 12.505 1.08889 12.7196 1.24713 12.8779C1.40536 13.0361 1.61997 13.125 1.84375 13.125C2.06753 13.125 2.28214 13.0361 2.44037 12.8779C2.59861 12.7196 2.6875 12.505 2.6875 12.2812V8.90625H8.3125V12.2812C8.3125 12.505 8.4014 12.7196 8.55963 12.8779C8.71786 13.0361 8.93247 13.125 9.15625 13.125C9.38003 13.125 9.59464 13.0361 9.75287 12.8779C9.9111 12.7196 10 12.505 10 12.2812V3.84375C10 3.61997 9.9111 3.40536 9.75287 3.24713C9.59464 3.08889 9.38003 3 9.15625 3Z" fill="#868E96"/>
</g>
</svg>
