<svg width="18" height="18" viewBox="0 0 18 18" fill="none" xmlns="http://www.w3.org/2000/svg">
<g id="ic_Italic">
<path id="Vector" d="M14.3438 3.9375C14.3438 4.16128 14.2549 4.37589 14.0966 4.53412C13.9384 4.69236 13.7238 4.78125 13.5 4.78125H11.2957L8.4832 13.2188H10.125C10.3488 13.2188 10.5634 13.3076 10.7216 13.4659C10.8799 13.6241 10.9688 13.8387 10.9688 14.0625C10.9688 14.2863 10.8799 14.5009 10.7216 14.6591C10.5634 14.8174 10.3488 14.9062 10.125 14.9062H4.5C4.27622 14.9062 4.06161 14.8174 3.90338 14.6591C3.74514 14.5009 3.65625 14.2863 3.65625 14.0625C3.65625 13.8387 3.74514 13.6241 3.90338 13.4659C4.06161 13.3076 4.27622 13.2188 4.5 13.2188H6.7043L9.5168 4.78125H7.875C7.65122 4.78125 7.43661 4.69236 7.27838 4.53412C7.12014 4.37589 7.03125 4.16128 7.03125 3.9375C7.03125 3.71372 7.12014 3.49911 7.27838 3.34088C7.43661 3.18264 7.65122 3.09375 7.875 3.09375H13.5C13.7238 3.09375 13.9384 3.18264 14.0966 3.34088C14.2549 3.49911 14.3438 3.71372 14.3438 3.9375Z" fill="#868E96"/>
</g>
</svg>
