<svg width="20" height="20" viewBox="0 0 20 20" fill="none" xmlns="http://www.w3.org/2000/svg">
<path d="M3.33337 7.5V15.8333C3.33337 16.2754 3.50897 16.6993 3.82153 17.0118C4.13409 17.3244 4.55801 17.5 5.00004 17.5H15C15.4421 17.5 15.866 17.3244 16.1786 17.0118C16.4911 16.6993 16.6667 16.2754 16.6667 15.8333V7.5M3.33337 7.5V5.83333C3.33337 5.39131 3.50897 4.96738 3.82153 4.65482C4.13409 4.34226 4.55801 4.16667 5.00004 4.16667H6.66671M3.33337 7.5H16.6667M16.6667 7.5V5.83333C16.6667 5.39131 16.4911 4.96738 16.1786 4.65482C15.866 4.34226 15.4421 4.16667 15 4.16667H13.3334M6.66671 4.16667H13.3334M6.66671 4.16667V2.5M13.3334 4.16667V2.5" stroke="#343A40" stroke-width="2" stroke-linecap="round" stroke-linejoin="round"/>
</svg>
