<svg width="18" height="18" viewBox="0 0 18 18" fill="none" xmlns="http://www.w3.org/2000/svg">
<g id="icnBullet">
<path id="Vector" d="M3.125 5.25C3.42337 5.25 3.70952 5.13147 3.9205 4.9205C4.13147 4.70952 4.25 4.42337 4.25 4.125C4.25 3.82663 4.13147 3.54048 3.9205 3.3295C3.70952 3.11853 3.42337 3 3.125 3C2.82663 3 2.54048 3.11853 2.3295 3.3295C2.11853 3.54048 2 3.82663 2 4.125C2 4.42337 2.11853 4.70952 2.3295 4.9205C2.54048 5.13147 2.82663 5.25 3.125 5.25ZM6.5 4.125C6.5 3.94598 6.57112 3.77429 6.6977 3.6477C6.82429 3.52112 6.99598 3.45 7.175 3.45H15.725C15.904 3.45 16.0757 3.52112 16.2023 3.6477C16.3289 3.77429 16.4 3.94598 16.4 4.125C16.4 4.30402 16.3289 4.47571 16.2023 4.6023C16.0757 4.72888 15.904 4.8 15.725 4.8H7.175C6.99598 4.8 6.82429 4.72888 6.6977 4.6023C6.57112 4.47571 6.5 4.30402 6.5 4.125ZM7.175 7.95C6.99598 7.95 6.82429 8.02112 6.6977 8.1477C6.57112 8.27429 6.5 8.44598 6.5 8.625C6.5 8.80402 6.57112 8.97571 6.6977 9.1023C6.82429 9.22888 6.99598 9.3 7.175 9.3H15.725C15.904 9.3 16.0757 9.22888 16.2023 9.1023C16.3289 8.97571 16.4 8.80402 16.4 8.625C16.4 8.44598 16.3289 8.27429 16.2023 8.1477C16.0757 8.02112 15.904 7.95 15.725 7.95H7.175ZM7.175 12.45C6.99598 12.45 6.82429 12.5211 6.6977 12.6477C6.57112 12.7743 6.5 12.946 6.5 13.125C6.5 13.304 6.57112 13.4757 6.6977 13.6023C6.82429 13.7289 6.99598 13.8 7.175 13.8H15.725C15.904 13.8 16.0757 13.7289 16.2023 13.6023C16.3289 13.4757 16.4 13.304 16.4 13.125C16.4 12.946 16.3289 12.7743 16.2023 12.6477C16.0757 12.5211 15.904 12.45 15.725 12.45H7.175ZM4.25 8.625C4.25 8.92337 4.13147 9.20952 3.9205 9.42049C3.70952 9.63147 3.42337 9.75 3.125 9.75C2.82663 9.75 2.54048 9.63147 2.3295 9.42049C2.11853 9.20952 2 8.92337 2 8.625C2 8.32663 2.11853 8.04048 2.3295 7.8295C2.54048 7.61853 2.82663 7.5 3.125 7.5C3.42337 7.5 3.70952 7.61853 3.9205 7.8295C4.13147 8.04048 4.25 8.32663 4.25 8.625ZM3.125 14.25C3.42337 14.25 3.70952 14.1315 3.9205 13.9205C4.13147 13.7095 4.25 13.4234 4.25 13.125C4.25 12.8266 4.13147 12.5405 3.9205 12.3295C3.70952 12.1185 3.42337 12 3.125 12C2.82663 12 2.54048 12.1185 2.3295 12.3295C2.11853 12.5405 2 12.8266 2 13.125C2 13.4234 2.11853 13.7095 2.3295 13.9205C2.54048 14.1315 2.82663 14.25 3.125 14.25Z" fill="#868E96"/>
</g>
</svg>
