<svg width="18" height="18" viewBox="0 0 18 18" fill="none" xmlns="http://www.w3.org/2000/svg">
<g id="icnCodeblock">
<path id="Vector" d="M2 3.47656C2 2.6615 2.6615 2 3.47656 2H14.0234C14.8385 2 15.5 2.6615 15.5 3.47656V14.0234C15.5 14.415 15.3444 14.7906 15.0675 15.0675C14.7906 15.3444 14.415 15.5 14.0234 15.5H3.47656C3.08495 15.5 2.70938 15.3444 2.43248 15.0675C2.15557 14.7906 2 14.415 2 14.0234V3.47656ZM3.47656 3.26562C3.42062 3.26562 3.36697 3.28785 3.32741 3.32741C3.28785 3.36697 3.26562 3.42062 3.26562 3.47656V14.0234C3.26562 14.1399 3.36013 14.2344 3.47656 14.2344H14.0234C14.0794 14.2344 14.133 14.2122 14.1726 14.1726C14.2122 14.133 14.2344 14.0794 14.2344 14.0234V3.47656C14.2344 3.42062 14.2122 3.36697 14.1726 3.32741C14.133 3.28785 14.0794 3.26562 14.0234 3.26562H3.47656ZM9.77938 6.61531C9.89803 6.49681 10.0589 6.43024 10.2266 6.43024C10.3943 6.43024 10.5551 6.49681 10.6737 6.61531L12.3612 8.30281C12.4798 8.42146 12.5463 8.5823 12.5463 8.75C12.5463 8.9177 12.4798 9.07853 12.3612 9.19719L10.6737 10.8847C10.5964 10.968 10.498 11.0289 10.389 11.061C10.2799 11.093 10.1642 11.0951 10.0541 11.0669C9.94397 11.0388 9.84347 10.9814 9.7632 10.901C9.68292 10.8205 9.62584 10.7198 9.59797 10.6096C9.56977 10.4996 9.57174 10.3841 9.60366 10.2751C9.63559 10.1661 9.69628 10.0677 9.77938 9.99031L11.0197 8.75L9.77938 7.50969C9.66087 7.39104 9.59431 7.2302 9.59431 7.0625C9.59431 6.8948 9.66087 6.73396 9.77938 6.61531ZM7.72063 7.50969L6.48031 8.75L7.72063 9.99031C7.80392 10.0677 7.86482 10.166 7.89689 10.2751C7.92897 10.3842 7.93103 10.4998 7.90288 10.61C7.87472 10.7201 7.81738 10.8206 7.73689 10.9009C7.65641 10.9811 7.55576 11.0382 7.44556 11.0661C7.33556 11.0943 7.21999 11.0923 7.11101 11.0604C7.00202 11.0285 6.90366 10.9678 6.82625 10.8847L5.13875 9.19719C5.02024 9.07853 4.95368 8.9177 4.95368 8.75C4.95368 8.5823 5.02024 8.42146 5.13875 8.30281L6.82625 6.61531C6.94628 6.50359 7.10495 6.44276 7.26891 6.44559C7.43286 6.44842 7.58933 6.5147 7.70544 6.6305C7.82124 6.7466 7.88752 6.90308 7.89035 7.06703C7.89318 7.23099 7.83234 7.38965 7.72063 7.50969Z" fill="#868E96"/>
</g>
</svg>
