<svg width="18" height="18" viewBox="0 0 18 18" fill="none" xmlns="http://www.w3.org/2000/svg">
<g id="icnimage">
<path id="Vector" d="M3.75 15.75C3.3375 15.75 2.98425 15.603 2.69025 15.309C2.39625 15.015 2.2495 14.662 2.25 14.25V3.75C2.25 3.3375 2.397 2.98425 2.691 2.69025C2.985 2.39625 3.338 2.2495 3.75 2.25H14.25C14.6625 2.25 15.0158 2.397 15.3098 2.691C15.6038 2.985 15.7505 3.338 15.75 3.75V14.25C15.75 14.6625 15.603 15.0158 15.309 15.3098C15.015 15.6038 14.662 15.7505 14.25 15.75H3.75ZM3.75 14.25H14.25V3.75H3.75V14.25ZM4.5 12.75H13.5L10.6875 9L8.4375 12L6.75 9.75L4.5 12.75Z" fill="#868E96"/>
</g>
</svg>
