<svg width="18" height="18" viewBox="0 0 18 18" fill="none" xmlns="http://www.w3.org/2000/svg">
<g id="icnOrder">
<path id="Vector" d="M6.2195 14.4622H15.9695V12.9622H6.2195V14.4622ZM6.2195 9.96225H15.9695V8.46225H6.2195V9.96225ZM6.2195 3.96225V5.46225H15.9695V3.96225H6.2195ZM2.90075 4.15125C2.981 4.07925 3.0485 4.01025 3.1025 3.945C3.0935 4.116 3.089 4.305 3.089 4.512V6.21225H3.97025V3H3.18875L2.0855 3.8985L2.53625 4.452L2.90075 4.15125ZM3.15125 9.97425C3.5075 9.65475 3.74 9.438 3.84875 9.324C3.95825 9.21 4.04525 9.10125 4.11125 8.99775C4.17725 8.89425 4.226 8.78925 4.2575 8.68275C4.289 8.5755 4.30475 8.45925 4.30475 8.33325C4.30475 8.1645 4.25975 8.013 4.16975 7.87725C4.07975 7.7415 3.953 7.63725 3.7895 7.5645C3.61413 7.48794 3.42432 7.45007 3.233 7.4535C3.06725 7.4535 2.91875 7.47 2.786 7.50375C2.65325 7.5375 2.531 7.58625 2.41775 7.65C2.30525 7.71375 2.16575 7.8195 2 7.96725L2.477 8.52525C2.6075 8.41275 2.7245 8.32725 2.82725 8.2695C2.92028 8.21452 3.02596 8.18455 3.134 8.1825C3.21668 8.17717 3.29834 8.20314 3.36275 8.25525C3.38999 8.28026 3.41137 8.31097 3.42538 8.3452C3.43938 8.37942 3.44565 8.41632 3.44375 8.45325C3.44375 8.52075 3.43025 8.58525 3.40325 8.64675C3.37625 8.70825 3.32825 8.78175 3.25925 8.86725C3.19025 8.95275 3.044 9.11325 2.81975 9.34725L2.03525 10.1407V10.7122H4.36625V9.996H3.15125V9.97425ZM3.54875 13.5337V13.5202C3.779 13.4557 3.9545 13.3515 4.076 13.2097C4.1975 13.0665 4.25825 12.8955 4.25825 12.696C4.26155 12.5885 4.23722 12.4819 4.18759 12.3864C4.13796 12.291 4.06468 12.2098 3.97475 12.1508C3.78575 12.0188 3.52475 11.9528 3.1925 11.9528C2.96225 11.9528 2.75825 11.9775 2.5805 12.0277C2.40275 12.078 2.22875 12.1612 2.0585 12.2782L2.4185 12.858C2.63825 12.72 2.8505 12.6518 3.056 12.6518C3.16625 12.6518 3.25325 12.672 3.3185 12.7132C3.38375 12.7545 3.416 12.8175 3.416 12.9023C3.416 13.128 3.1955 13.2405 2.7545 13.2405H2.552V13.893H2.75C2.91275 13.893 3.04475 13.905 3.14525 13.9298C3.2465 13.953 3.31925 13.9898 3.365 14.037C3.41075 14.085 3.43325 14.1525 3.43325 14.2403C3.43325 14.3543 3.38975 14.4383 3.30275 14.4923C3.21575 14.5448 3.077 14.5717 2.8865 14.5717C2.75043 14.5705 2.61499 14.5531 2.483 14.52C2.33379 14.4848 2.18947 14.4314 2.05325 14.361V15.0818C2.22425 15.1478 2.384 15.1928 2.531 15.2183C2.678 15.243 2.8385 15.2557 3.011 15.2557C3.43175 15.2557 3.7595 15.1703 3.9965 14.9985C4.23275 14.8275 4.35125 14.592 4.35125 14.2935C4.3535 13.8547 4.085 13.6012 3.54875 13.5337Z" fill="#868E96"/>
</g>
</svg>
