<svg width="18" height="18" viewBox="0 0 18 18" fill="none" xmlns="http://www.w3.org/2000/svg">
<g id="icnQuote">
<path id="Vector" d="M13.5002 13.5C13.7986 13.5 14.0847 13.3815 14.2957 13.1705C14.5067 12.9595 14.6252 12.6734 14.6252 12.375V9.62775C14.6252 9.32938 14.5067 9.04323 14.2957 8.83225C14.0847 8.62128 13.7986 8.50275 13.5002 8.50275H11.9387C11.9387 8.10788 11.9623 7.71188 12.0084 7.317C12.0782 6.8985 12.1952 6.52613 12.3572 6.201C12.5203 5.87475 12.7296 5.61937 12.9861 5.43262C13.2414 5.22337 13.5666 5.11875 13.9626 5.11875V3.375C13.3112 3.375 12.7419 3.5145 12.2526 3.7935C11.7675 4.06967 11.3504 4.45101 11.0319 4.9095C10.7124 5.41498 10.4768 5.96891 10.3344 6.54975C10.191 7.19073 10.1208 7.84593 10.1252 8.50275V12.375C10.1252 12.6734 10.2437 12.9595 10.4547 13.1705C10.6657 13.3815 10.9518 13.5 11.2502 13.5H13.5002ZM6.75019 13.5C7.04856 13.5 7.33471 13.3815 7.54569 13.1705C7.75667 12.9595 7.87519 12.6734 7.87519 12.375V9.62775C7.87519 9.32938 7.75667 9.04323 7.54569 8.83225C7.33471 8.62128 7.04856 8.50275 6.75019 8.50275H5.18869C5.18869 8.10788 5.21232 7.71188 5.25844 7.317C5.32819 6.8985 5.4452 6.52613 5.6072 6.201C5.77032 5.87475 5.97957 5.61937 6.23607 5.43262C6.49145 5.22337 6.81657 5.11875 7.21257 5.11875V3.375C6.56119 3.375 5.99194 3.5145 5.50257 3.7935C5.01745 4.06967 4.60037 4.45101 4.28194 4.9095C3.96236 5.41498 3.72681 5.96891 3.58445 6.54975C3.44099 7.19073 3.37079 7.84593 3.37519 8.50275V12.375C3.37519 12.6734 3.49372 12.9595 3.7047 13.1705C3.91568 13.3815 4.20183 13.5 4.50019 13.5H6.75019Z" fill="#868E96"/>
</g>
</svg>
