<svg width="18" height="18" viewBox="0 0 18 18" fill="none" xmlns="http://www.w3.org/2000/svg">
<g id="image-down">
<path id="Icon" d="M4.78125 15.75L11.9531 9L15.3281 12.375M4.78125 15.75H13.2188C14.6167 15.75 15.75 14.6167 15.75 13.2188V9M4.78125 15.75C3.38328 15.75 2.25 14.6167 2.25 13.2188V4.78125C2.25 3.38328 3.38328 2.25 4.78125 2.25H10.2656M15.75 4.75131L14.0243 6.46875M14.0243 6.46875L12.375 4.82895M14.0243 6.46875V2.25M7.3125 6.04688C7.3125 6.74586 6.74586 7.3125 6.04688 7.3125C5.34789 7.3125 4.78125 6.74586 4.78125 6.04688C4.78125 5.34789 5.34789 4.78125 6.04688 4.78125C6.74586 4.78125 7.3125 5.34789 7.3125 6.04688Z" stroke="#868E96" stroke-width="1.5" stroke-linecap="round" stroke-linejoin="round"/>
</g>
</svg>
