<svg width="140" height="20" viewBox="0 0 140 20" fill="none" xmlns="http://www.w3.org/2000/svg">
<path d="M4.69846 9.57294C7.29334 9.57294 9.39691 7.50735 9.39691 4.95932C9.39691 2.41129 7.29334 0.345703 4.69846 0.345703C2.10357 0.345703 0 2.41129 0 4.95932C0 7.50735 2.10357 9.57294 4.69846 9.57294Z" fill="#1A9B6F"/>
<path d="M20.6545 19.9997C23.2494 19.9997 25.3529 17.9341 25.3529 15.3861C25.3529 12.8381 23.2494 10.7725 20.6545 10.7725C18.0596 10.7725 15.956 12.8381 15.956 15.3861C15.956 17.9341 18.0596 19.9997 20.6545 19.9997Z" fill="#1A9B6F"/>
<path d="M10.1487 0.345703H20.6544C23.2493 0.345703 25.3529 2.41129 25.3529 4.95932C25.3529 7.50735 23.2493 9.57294 20.6544 9.57294H10.1487V0.345703Z" fill="#19DB7B"/>
<path d="M4.69846 10.7725C2.10357 10.7725 0 12.8381 0 15.3861C0 17.9341 2.10357 19.9997 4.69846 19.9997H10.5057C13.1006 19.9997 15.2042 17.9341 15.2042 15.3861C15.2042 12.8381 13.1006 10.7725 10.5057 10.7725H4.69846Z" fill="#2F4CA9"/>
<path d="M38.305 15.181C37.6175 15.181 36.986 15.0504 36.4108 14.7891C35.8355 14.5278 35.3654 14.1703 35.0006 13.7165C34.6358 13.249 34.4253 12.7196 34.3692 12.1283V7.8999C34.4253 7.30861 34.6358 6.77233 35.0006 6.29104C35.3654 5.80976 35.8355 5.43161 36.4108 5.15659C36.986 4.88158 37.6175 4.74407 38.305 4.74407C39.2732 4.74407 40.1291 4.97096 40.8728 5.42474C41.6305 5.87852 42.2198 6.49731 42.6407 7.28111C43.0757 8.06491 43.2932 8.95872 43.2932 9.96254C43.2932 10.9664 43.0757 11.8602 42.6407 12.644C42.2198 13.4278 41.6305 14.0466 40.8728 14.5003C40.1291 14.9541 39.2732 15.181 38.305 15.181ZM32.4118 19.2032V4.95033H35.632V7.52863L35.1058 9.96254L35.5899 12.3965V19.2032H32.4118ZM37.7157 12.3346C38.1787 12.3346 38.5786 12.2314 38.9154 12.0252C39.2662 11.8189 39.5398 11.537 39.7362 11.1795C39.9327 10.822 40.0309 10.4163 40.0309 9.96254C40.0309 9.49501 39.9327 9.08248 39.7362 8.72496C39.5398 8.36743 39.2662 8.09241 38.9154 7.8999C38.5786 7.69364 38.1857 7.59051 37.7367 7.59051C37.2877 7.59051 36.8878 7.69364 36.537 7.8999C36.2003 8.09241 35.9337 8.36743 35.7372 8.72496C35.5408 9.08248 35.4426 9.49501 35.4426 9.96254C35.4426 10.4163 35.5338 10.822 35.7162 11.1795C35.9126 11.537 36.1863 11.8189 36.537 12.0252C36.8878 12.2314 37.2807 12.3346 37.7157 12.3346Z" fill="#343A40"/>
<path d="M49.2017 15.181C48.2616 15.181 47.4197 14.9541 46.6761 14.5003C45.9464 14.0466 45.3641 13.4278 44.9291 12.644C44.5082 11.8602 44.2977 10.9664 44.2977 9.96254C44.2977 8.95872 44.5082 8.06491 44.9291 7.28111C45.3641 6.49731 45.9464 5.87852 46.6761 5.42474C47.4197 4.97096 48.2616 4.74407 49.2017 4.74407C49.8893 4.74407 50.5067 4.8747 51.0539 5.13597C51.6152 5.39723 52.0712 5.76163 52.422 6.22917C52.7728 6.68295 52.9692 7.20548 53.0113 7.79677V12.1283C52.9692 12.7196 52.7728 13.249 52.422 13.7165C52.0852 14.1703 51.6362 14.5278 51.0749 14.7891C50.5137 15.0504 49.8893 15.181 49.2017 15.181ZM49.8542 12.3346C50.5418 12.3346 51.096 12.1146 51.5169 11.6745C51.9379 11.2207 52.1484 10.6501 52.1484 9.96254C52.1484 9.49501 52.0501 9.08248 51.8537 8.72496C51.6713 8.36743 51.4047 8.09241 51.0539 7.8999C50.7171 7.69364 50.3243 7.59051 49.8753 7.59051C49.4262 7.59051 49.0264 7.69364 48.6756 7.8999C48.3388 8.09241 48.0652 8.36743 47.8547 8.72496C47.6583 9.08248 47.5601 9.49501 47.5601 9.96254C47.5601 10.4163 47.6583 10.822 47.8547 11.1795C48.0512 11.537 48.3248 11.8189 48.6756 12.0252C49.0264 12.2314 49.4192 12.3346 49.8542 12.3346ZM52.0221 14.9747V12.2727L52.5062 9.83878L52.0221 7.40487V4.95033H55.1792V14.9747H52.0221Z" fill="#343A40"/>
<path d="M57.4465 14.9747V0H60.6667V14.9747H57.4465Z" fill="#343A40"/>
<path d="M62.9344 14.9747V4.95033H66.1547V14.9747H62.9344ZM69.4801 14.9747V9.11686C69.4801 8.60807 69.3188 8.21617 68.996 7.94115C68.6874 7.65238 68.3015 7.508 67.8384 7.508C67.5157 7.508 67.2281 7.57675 66.9755 7.71426C66.7229 7.83802 66.5195 8.01678 66.3651 8.25055C66.2248 8.48431 66.1547 8.77308 66.1547 9.11686L64.9129 8.58057C64.9129 7.78302 65.0883 7.10235 65.4391 6.53856C65.7898 5.96102 66.2669 5.52099 66.8703 5.21847C67.4736 4.9022 68.1542 4.74407 68.9119 4.74407C69.6275 4.74407 70.2659 4.9022 70.8272 5.21847C71.4025 5.53474 71.8585 5.97477 72.1952 6.53856C72.532 7.10235 72.7004 7.77614 72.7004 8.55994V14.9747H69.4801ZM76.0258 14.9747V9.11686C76.0258 8.60807 75.8645 8.21617 75.5418 7.94115C75.2331 7.65238 74.8472 7.508 74.3841 7.508C74.0614 7.508 73.7738 7.57675 73.5212 7.71426C73.2686 7.83802 73.0652 8.01678 72.9108 8.25055C72.7705 8.48431 72.7004 8.77308 72.7004 9.11686L70.8482 8.86934C70.8763 8.01678 71.0797 7.28798 71.4586 6.68294C71.8515 6.06415 72.3636 5.58975 72.995 5.25973C73.6405 4.91595 74.3631 4.74407 75.1629 4.74407C75.9487 4.74407 76.6432 4.90908 77.2466 5.2391C77.864 5.55537 78.3481 6.01603 78.6988 6.62107C79.0637 7.21236 79.2461 7.9274 79.2461 8.76621V14.9747H76.0258Z" fill="#343A40"/>
<path d="M85.0351 15.2223C84.4317 15.2223 83.8354 15.1466 83.246 14.9954C82.6707 14.8441 82.1305 14.631 81.6254 14.356C81.1343 14.0672 80.7133 13.7372 80.3626 13.3659L82.1937 11.5508C82.5304 11.9083 82.9303 12.1902 83.3934 12.3965C83.8564 12.589 84.3615 12.6852 84.9088 12.6852C85.2876 12.6852 85.5753 12.6302 85.7717 12.5202C85.9822 12.4102 86.0874 12.2589 86.0874 12.0664C86.0874 11.8189 85.9611 11.6333 85.7086 11.5095C85.47 11.372 85.1613 11.2551 84.7825 11.1589C84.4036 11.0489 84.0037 10.932 83.5828 10.8082C83.1618 10.6845 82.7619 10.5126 82.3831 10.2926C82.0042 10.0725 81.6955 9.77003 81.457 9.385C81.2185 8.98622 81.0992 8.48431 81.0992 7.87927C81.0992 7.23298 81.2676 6.67607 81.6044 6.20854C81.9411 5.72726 82.4182 5.34911 83.0356 5.07409C83.653 4.79907 84.3756 4.66156 85.2034 4.66156C86.0734 4.66156 86.8732 4.81282 87.6028 5.11534C88.3465 5.40411 88.9498 5.83726 89.4129 6.4148L87.5818 8.22992C87.2591 7.85865 86.8942 7.59738 86.4873 7.44612C86.0944 7.29486 85.7086 7.21923 85.3297 7.21923C84.9649 7.21923 84.6913 7.27423 84.5089 7.38424C84.3265 7.4805 84.2353 7.62488 84.2353 7.8174C84.2353 8.02366 84.3545 8.18867 84.5931 8.31243C84.8316 8.43619 85.1403 8.54619 85.5191 8.64245C85.898 8.73871 86.2979 8.85559 86.7188 8.9931C87.1398 9.13061 87.5397 9.31625 87.9185 9.55001C88.2974 9.78378 88.6061 10.1 88.8446 10.4988C89.0831 10.8839 89.2024 11.3926 89.2024 12.0252C89.2024 13.0015 88.8236 13.7784 88.0659 14.356C87.3222 14.9335 86.3119 15.2223 85.0351 15.2223Z" fill="#343A40"/>
<path d="M96.8427 15.181C96.1552 15.181 95.5238 15.0504 94.9485 14.7891C94.3732 14.5278 93.9031 14.1703 93.5383 13.7165C93.1735 13.249 92.963 12.7196 92.9069 12.1283V7.8999C92.963 7.30861 93.1735 6.77233 93.5383 6.29104C93.9031 5.80976 94.3732 5.43161 94.9485 5.15659C95.5238 4.88158 96.1552 4.74407 96.8427 4.74407C97.8109 4.74407 98.6668 4.97096 99.4105 5.42474C100.168 5.87852 100.758 6.49731 101.178 7.28111C101.613 8.06491 101.831 8.95872 101.831 9.96254C101.831 10.9664 101.613 11.8602 101.178 12.644C100.758 13.4278 100.168 14.0466 99.4105 14.5003C98.6668 14.9541 97.8109 15.181 96.8427 15.181ZM90.9495 19.2032V4.95033H94.1697V7.52863L93.6436 9.96254L94.1276 12.3965V19.2032H90.9495ZM96.2534 12.3346C96.7165 12.3346 97.1163 12.2314 97.4531 12.0252C97.8039 11.8189 98.0775 11.537 98.2739 11.1795C98.4704 10.822 98.5686 10.4163 98.5686 9.96254C98.5686 9.49501 98.4704 9.08248 98.2739 8.72496C98.0775 8.36743 97.8039 8.09241 97.4531 7.8999C97.1163 7.69364 96.7235 7.59051 96.2745 7.59051C95.8255 7.59051 95.4256 7.69364 95.0748 7.8999C94.738 8.09241 94.4714 8.36743 94.275 8.72496C94.0785 9.08248 93.9803 9.49501 93.9803 9.96254C93.9803 10.4163 94.0715 10.822 94.2539 11.1795C94.4504 11.537 94.724 11.8189 95.0748 12.0252C95.4256 12.2314 95.8184 12.3346 96.2534 12.3346Z" fill="#343A40"/>
<path d="M103.467 14.9747V4.95033H106.687V14.9747H103.467ZM106.687 9.46751L105.34 8.43619C105.607 7.26736 106.056 6.3598 106.687 5.71351C107.319 5.06721 108.195 4.74407 109.318 4.74407C109.809 4.74407 110.237 4.8197 110.602 4.97096C110.981 5.10847 111.31 5.32848 111.591 5.631L109.676 8.00303C109.536 7.85177 109.36 7.73489 109.15 7.65238C108.939 7.56988 108.701 7.52863 108.434 7.52863C107.901 7.52863 107.473 7.69364 107.15 8.02366C106.841 8.33993 106.687 8.82121 106.687 9.46751Z" fill="#343A40"/>
<path d="M112.449 14.9747V4.95033H115.669V14.9747H112.449ZM114.07 3.56836C113.564 3.56836 113.144 3.40335 112.807 3.07333C112.484 2.72956 112.323 2.31703 112.323 1.83575C112.323 1.34071 112.484 0.928187 112.807 0.598165C113.144 0.268143 113.564 0.103132 114.07 0.103132C114.575 0.103132 114.989 0.268143 115.311 0.598165C115.634 0.928187 115.795 1.34071 115.795 1.83575C115.795 2.31703 115.634 2.72956 115.311 3.07333C114.989 3.40335 114.575 3.56836 114.07 3.56836Z" fill="#343A40"/>
<path d="M124.693 14.9747V9.26124C124.693 8.73871 124.525 8.3193 124.188 8.00303C123.865 7.67301 123.451 7.508 122.946 7.508C122.595 7.508 122.287 7.58363 122.02 7.73489C121.753 7.8724 121.543 8.07866 121.389 8.35368C121.234 8.61495 121.157 8.91747 121.157 9.26124L119.915 8.66308C119.915 7.87927 120.091 7.19173 120.441 6.60044C120.792 6.00915 121.276 5.55537 121.894 5.2391C122.525 4.90908 123.234 4.74407 124.02 4.74407C124.777 4.74407 125.444 4.92283 126.019 5.28035C126.608 5.62412 127.071 6.08478 127.408 6.66232C127.745 7.23986 127.913 7.8724 127.913 8.55994V14.9747H124.693ZM117.937 14.9747V4.95033H121.157V14.9747H117.937Z" fill="#343A40"/>
<path d="M134.317 19.4713C133.195 19.4713 132.205 19.2788 131.35 18.8938C130.508 18.5225 129.841 17.9931 129.35 17.3055L131.329 15.3666C131.693 15.7929 132.1 16.1161 132.549 16.3361C133.012 16.5561 133.567 16.6661 134.212 16.6661C135.012 16.6661 135.636 16.4736 136.085 16.0886C136.548 15.7035 136.78 15.1604 136.78 14.4591V11.9014L137.327 9.71502L136.843 7.52863V4.95033H140V14.3766C140 15.4079 139.754 16.3017 139.263 17.058C138.772 17.8143 138.099 18.4056 137.243 18.8319C136.387 19.2582 135.412 19.4713 134.317 19.4713ZM134.17 14.6654C133.23 14.6654 132.395 14.4453 131.665 14.0053C130.936 13.5653 130.36 12.9671 129.939 12.2108C129.518 11.4545 129.308 10.6157 129.308 9.6944C129.308 8.75933 129.518 7.92053 129.939 7.17798C130.36 6.42168 130.936 5.83039 131.665 5.40411C132.395 4.96408 133.23 4.74407 134.17 4.74407C134.871 4.74407 135.496 4.8747 136.043 5.13597C136.604 5.38348 137.053 5.74101 137.39 6.20854C137.741 6.66232 137.937 7.19173 137.979 7.79677V11.6126C137.937 12.2039 137.741 12.7333 137.39 13.2009C137.053 13.6547 136.604 14.0122 136.043 14.2734C135.482 14.5347 134.857 14.6654 134.17 14.6654ZM134.78 11.8602C135.229 11.8602 135.615 11.7639 135.938 11.5714C136.275 11.3789 136.527 11.1245 136.696 10.8082C136.878 10.4782 136.969 10.1069 136.969 9.6944C136.969 9.28187 136.878 8.91059 136.696 8.58057C136.527 8.25055 136.275 7.98928 135.938 7.79677C135.615 7.60426 135.229 7.508 134.78 7.508C134.345 7.508 133.959 7.60426 133.623 7.79677C133.286 7.98928 133.026 8.25055 132.844 8.58057C132.662 8.91059 132.57 9.28187 132.57 9.6944C132.57 10.0794 132.662 10.4438 132.844 10.7876C133.026 11.1176 133.279 11.3789 133.602 11.5714C133.938 11.7639 134.331 11.8602 134.78 11.8602Z" fill="#343A40"/>
</svg>
