<svg width="348" height="51" viewBox="0 0 348 51" fill="none" xmlns="http://www.w3.org/2000/svg">
<path d="M11.679 24.4118C18.1292 24.4118 23.358 19.1445 23.358 12.6471C23.358 6.14957 18.1292 0.882324 11.679 0.882324C5.22887 0.882324 0 6.14957 0 12.6471C0 19.1445 5.22887 24.4118 11.679 24.4118Z" fill="#1A9B6F"/>
<path d="M51.3411 51.0001C57.7913 51.0001 63.0202 45.7328 63.0202 39.2353C63.0202 32.7379 57.7913 27.4706 51.3411 27.4706C44.891 27.4706 39.6621 32.7379 39.6621 39.2353C39.6621 45.7328 44.891 51.0001 51.3411 51.0001Z" fill="#1A9B6F"/>
<path d="M25.2267 0.882324H51.341C57.7911 0.882324 63.02 6.14957 63.02 12.6471C63.02 19.1445 57.7911 24.4118 51.341 24.4118H25.2267V0.882324Z" fill="#19DB7B"/>
<path d="M11.679 27.4706C5.22887 27.4706 0 32.7379 0 39.2353C0 45.7328 5.22888 51.0001 11.679 51.0001H26.1143C32.5644 51.0001 37.7933 45.7328 37.7933 39.2353C37.7933 32.7379 32.5644 27.4706 26.1143 27.4706H11.679Z" fill="#2F4CA9"/>
<path d="M95.2153 38.7116C93.5063 38.7116 91.9367 38.3785 90.5067 37.7122C89.0767 37.046 87.9083 36.1343 87.0015 34.9772C86.0946 33.785 85.5714 32.435 85.4319 30.9272V20.1447C85.5714 18.637 86.0946 17.2694 87.0015 16.0422C87.9083 14.8149 89.0767 13.8506 90.5067 13.1493C91.9367 12.448 93.5063 12.0974 95.2153 12.0974C97.6219 12.0974 99.7495 12.6759 101.598 13.8331C103.481 14.9902 104.946 16.5681 105.993 18.5668C107.074 20.5655 107.615 22.8447 107.615 25.4045C107.615 27.9642 107.074 30.2434 105.993 32.2421C104.946 34.2408 103.481 35.8187 101.598 36.9759C99.7495 38.133 97.6219 38.7116 95.2153 38.7116ZM80.5664 48.968V12.6233H88.571V19.198L87.263 25.4045L88.4664 31.611V48.968H80.5664ZM93.7504 31.4532C94.9014 31.4532 95.8954 31.1902 96.7325 30.6642C97.6045 30.1382 98.2846 29.4194 98.7729 28.5077C99.2612 27.596 99.5053 26.5616 99.5053 25.4045C99.5053 24.2123 99.2612 23.1603 98.7729 22.2486C98.2846 21.337 97.6045 20.6357 96.7325 20.1447C95.8954 19.6188 94.9188 19.3558 93.8027 19.3558C92.6866 19.3558 91.6926 19.6188 90.8206 20.1447C89.9836 20.6357 89.3209 21.337 88.8326 22.2486C88.3443 23.1603 88.1001 24.2123 88.1001 25.4045C88.1001 26.5616 88.3268 27.596 88.7803 28.5077C89.2686 29.4194 89.9487 30.1382 90.8206 30.6642C91.6926 31.1902 92.6692 31.4532 93.7504 31.4532Z" fill="black"/>
<path d="M122.301 38.7116C119.965 38.7116 117.872 38.133 116.023 36.9759C114.21 35.8187 112.762 34.2408 111.681 32.2421C110.635 30.2434 110.111 27.9642 110.111 25.4045C110.111 22.8447 110.635 20.5655 111.681 18.5668C112.762 16.5681 114.21 14.9902 116.023 13.8331C117.872 12.6759 119.965 12.0974 122.301 12.0974C124.011 12.0974 125.545 12.4305 126.905 13.0967C128.301 13.7629 129.434 14.6922 130.306 15.8844C131.178 17.0415 131.666 18.374 131.771 19.8818V30.9272C131.666 32.435 131.178 33.785 130.306 34.9772C129.469 36.1343 128.353 37.046 126.958 37.7122C125.563 38.3785 124.011 38.7116 122.301 38.7116ZM123.923 31.4532C125.632 31.4532 127.01 30.8921 128.056 29.77C129.103 28.6129 129.626 27.1577 129.626 25.4045C129.626 24.2123 129.382 23.1603 128.893 22.2486C128.44 21.337 127.777 20.6357 126.905 20.1447C126.068 19.6188 125.092 19.3558 123.976 19.3558C122.86 19.3558 121.865 19.6188 120.994 20.1447C120.156 20.6357 119.476 21.337 118.953 22.2486C118.465 23.1603 118.221 24.2123 118.221 25.4045C118.221 26.5616 118.465 27.596 118.953 28.5077C119.441 29.4194 120.122 30.1382 120.994 30.6642C121.865 31.1902 122.842 31.4532 123.923 31.4532ZM129.312 38.1856V31.2954L130.515 25.0889L129.312 18.8824V12.6233H137.16V38.1856H129.312Z" fill="black"/>
<path d="M142.796 38.1856V0H150.8V38.1856H142.796Z" fill="black"/>
<path d="M156.437 38.1856V12.6233H164.442V38.1856H156.437ZM172.708 38.1856V23.248C172.708 21.9506 172.307 20.9512 171.504 20.2499C170.737 19.5136 169.778 19.1454 168.627 19.1454C167.825 19.1454 167.11 19.3207 166.482 19.6714C165.854 19.987 165.348 20.4428 164.965 21.0389C164.616 21.635 164.442 22.3714 164.442 23.248L161.355 21.8805C161.355 19.8467 161.791 18.111 162.663 16.6733C163.535 15.2006 164.721 14.0785 166.22 13.3071C167.72 12.5006 169.412 12.0974 171.295 12.0974C173.074 12.0974 174.661 12.5006 176.056 13.3071C177.486 14.1136 178.62 15.2357 179.457 16.6733C180.294 18.111 180.712 19.8292 180.712 21.8279V38.1856H172.708ZM188.979 38.1856V23.248C188.979 21.9506 188.577 20.9512 187.775 20.2499C187.008 19.5136 186.049 19.1454 184.898 19.1454C184.096 19.1454 183.381 19.3207 182.753 19.6714C182.125 19.987 181.619 20.4428 181.236 21.0389C180.887 21.635 180.712 22.3714 180.712 23.248L176.108 22.6168C176.178 20.4428 176.684 18.5844 177.626 17.0415C178.602 15.4636 179.875 14.2539 181.445 13.4123C183.049 12.5357 184.845 12.0974 186.833 12.0974C188.787 12.0974 190.513 12.5181 192.013 13.3597C193.548 14.1662 194.751 15.3409 195.623 16.8837C196.53 18.3915 196.983 20.2149 196.983 22.3538V38.1856H188.979Z" fill="black"/>
<path d="M211.373 38.8168C209.873 38.8168 208.391 38.6239 206.926 38.2382C205.496 37.8525 204.153 37.309 202.897 36.6077C201.677 35.8713 200.63 35.0298 199.758 34.083L204.31 29.4545C205.147 30.3661 206.141 31.085 207.292 31.611C208.443 32.1019 209.699 32.3473 211.059 32.3473C212.001 32.3473 212.716 32.2071 213.204 31.9265C213.727 31.646 213.989 31.2603 213.989 30.7694C213.989 30.1382 213.675 29.6649 213.047 29.3493C212.454 28.9986 211.687 28.7006 210.745 28.4551C209.803 28.1746 208.809 27.8765 207.763 27.561C206.717 27.2454 205.723 26.8071 204.781 26.246C203.839 25.685 203.072 24.9136 202.479 23.9318C201.886 22.9149 201.589 21.635 201.589 20.0922C201.589 18.4441 202.008 17.024 202.845 15.8318C203.682 14.6045 204.868 13.6402 206.403 12.9389C207.937 12.2376 209.734 11.887 211.791 11.887C213.954 11.887 215.942 12.2727 217.756 13.0441C219.604 13.7805 221.104 14.885 222.255 16.3577L217.703 20.9863C216.901 20.0396 215.994 19.3733 214.983 18.9876C214.006 18.6019 213.047 18.409 212.105 18.409C211.198 18.409 210.518 18.5493 210.065 18.8298C209.611 19.0753 209.385 19.4435 209.385 19.9344C209.385 20.4603 209.681 20.8811 210.274 21.1967C210.867 21.5123 211.634 21.7928 212.576 22.0382C213.518 22.2837 214.512 22.5818 215.558 22.9324C216.605 23.2831 217.599 23.7564 218.54 24.3525C219.482 24.9486 220.249 25.7551 220.842 26.772C221.435 27.7538 221.732 29.0512 221.732 30.6642C221.732 33.1538 220.79 35.135 218.907 36.6077C217.058 38.0804 214.547 38.8168 211.373 38.8168Z" fill="black"/>
<path d="M240.723 38.7116C239.014 38.7116 237.445 38.3785 236.015 37.7122C234.585 37.046 233.416 36.1343 232.51 34.9772C231.603 33.785 231.08 32.435 230.94 30.9272V20.1447C231.08 18.637 231.603 17.2694 232.51 16.0422C233.416 14.8149 234.585 13.8506 236.015 13.1493C237.445 12.448 239.014 12.0974 240.723 12.0974C243.13 12.0974 245.258 12.6759 247.106 13.8331C248.99 14.9902 250.454 16.5681 251.501 18.5668C252.582 20.5655 253.123 22.8447 253.123 25.4045C253.123 27.9642 252.582 30.2434 251.501 32.2421C250.454 34.2408 248.99 35.8187 247.106 36.9759C245.258 38.133 243.13 38.7116 240.723 38.7116ZM226.074 48.968V12.6233H234.079V19.198L232.771 25.4045L233.974 31.611V48.968H226.074ZM239.258 31.4532C240.409 31.4532 241.404 31.1902 242.241 30.6642C243.113 30.1382 243.793 29.4194 244.281 28.5077C244.769 27.596 245.013 26.5616 245.013 25.4045C245.013 24.2123 244.769 23.1603 244.281 22.2486C243.793 21.337 243.113 20.6357 242.241 20.1447C241.404 19.6188 240.427 19.3558 239.311 19.3558C238.195 19.3558 237.201 19.6188 236.329 20.1447C235.492 20.6357 234.829 21.337 234.341 22.2486C233.852 23.1603 233.608 24.2123 233.608 25.4045C233.608 26.5616 233.835 27.596 234.288 28.5077C234.777 29.4194 235.457 30.1382 236.329 30.6642C237.201 31.1902 238.177 31.4532 239.258 31.4532Z" fill="black"/>
<path d="M257.189 38.1856V12.6233H265.194V38.1856H257.189ZM265.194 24.1421L261.845 21.5123C262.508 18.5318 263.624 16.2175 265.194 14.5694C266.763 12.9214 268.943 12.0974 271.733 12.0974C272.954 12.0974 274.018 12.2902 274.925 12.6759C275.866 13.0266 276.686 13.5876 277.384 14.3591L272.623 20.4077C272.274 20.022 271.838 19.724 271.315 19.5136C270.792 19.3032 270.199 19.198 269.536 19.198C268.211 19.198 267.147 19.6188 266.345 20.4603C265.577 21.2668 265.194 22.4941 265.194 24.1421Z" fill="black"/>
<path d="M279.516 38.1856V12.6233H287.521V38.1856H279.516ZM283.544 9.09932C282.289 9.09932 281.242 8.67855 280.405 7.83699C279.603 6.96037 279.202 5.90842 279.202 4.68116C279.202 3.41882 279.603 2.36688 280.405 1.52532C281.242 0.683765 282.289 0.262986 283.544 0.262986C284.8 0.262986 285.829 0.683765 286.631 1.52532C287.433 2.36688 287.834 3.41882 287.834 4.68116C287.834 5.90842 287.433 6.96037 286.631 7.83699C285.829 8.67855 284.8 9.09932 283.544 9.09932Z" fill="black"/>
<path d="M309.951 38.1856V23.6162C309.951 22.2837 309.533 21.2142 308.696 20.4077C307.893 19.5662 306.865 19.1454 305.609 19.1454C304.737 19.1454 303.97 19.3383 303.307 19.724C302.644 20.0746 302.121 20.6006 301.737 21.3019C301.354 21.9681 301.162 22.7395 301.162 23.6162L298.075 22.0908C298.075 20.0922 298.511 18.3389 299.383 16.8311C300.255 15.3233 301.458 14.1662 302.993 13.3597C304.563 12.5181 306.324 12.0974 308.277 12.0974C310.161 12.0974 311.817 12.5532 313.247 13.4649C314.712 14.3415 315.863 15.5162 316.7 16.9889C317.537 18.4616 317.956 20.0746 317.956 21.8279V38.1856H309.951ZM293.157 38.1856V12.6233H301.162V38.1856H293.157Z" fill="black"/>
<path d="M333.874 49.6518C331.084 49.6518 328.625 49.1609 326.498 48.1791C324.405 47.2323 322.748 45.8823 321.527 44.1291L326.445 39.185C327.352 40.272 328.364 41.096 329.48 41.657C330.631 42.2181 332.008 42.4986 333.613 42.4986C335.601 42.4986 337.153 42.0077 338.269 41.0259C339.42 40.044 339.995 38.659 339.995 36.8707V30.3486L341.356 24.7733L340.152 19.198V12.6233H348V36.6603C348 39.2902 347.39 41.5694 346.169 43.4979C344.948 45.4265 343.274 46.9343 341.146 48.0213C339.019 49.1083 336.595 49.6518 333.874 49.6518ZM333.508 37.3966C331.171 37.3966 329.096 36.8356 327.282 35.7135C325.469 34.5915 324.039 33.0661 322.992 31.1376C321.946 29.209 321.423 27.0701 321.423 24.7207C321.423 22.3363 321.946 20.1973 322.992 18.3038C324.039 16.3753 325.469 14.8675 327.282 13.7805C329.096 12.6584 331.171 12.0974 333.508 12.0974C335.252 12.0974 336.804 12.4305 338.164 13.0967C339.559 13.7279 340.676 14.6396 341.513 15.8318C342.385 16.9889 342.873 18.3389 342.978 19.8818V29.6123C342.873 31.12 342.385 32.47 341.513 33.6622C340.676 34.8194 339.559 35.7311 338.164 36.3973C336.769 37.0635 335.217 37.3966 333.508 37.3966ZM335.025 30.2434C336.141 30.2434 337.101 29.998 337.903 29.5071C338.74 29.0162 339.368 28.3675 339.786 27.561C340.24 26.7194 340.466 25.7727 340.466 24.7207C340.466 23.6688 340.24 22.722 339.786 21.8805C339.368 21.0389 338.74 20.3727 337.903 19.8818C337.101 19.3909 336.141 19.1454 335.025 19.1454C333.944 19.1454 332.985 19.3909 332.148 19.8818C331.311 20.3727 330.665 21.0389 330.212 21.8805C329.759 22.722 329.532 23.6688 329.532 24.7207C329.532 25.7025 329.759 26.6317 330.212 27.5084C330.665 28.3499 331.293 29.0162 332.095 29.5071C332.933 29.998 333.909 30.2434 335.025 30.2434Z" fill="black"/>
</svg>
