<svg width="100%" height="100%" viewBox="0 0 596 187" fill="none" xmlns="http://www.w3.org/2000/svg">
<g clip-path="url(#clip0_204_453)">
<path d="M56.8 148C50.2667 148 44.2667 146.733 38.8 144.2C33.3333 141.667 28.8667 138.2 25.4 133.8C21.9333 129.267 19.9333 124.133 19.4 118.4V77.4001C19.9333 71.6668 21.9333 66.4667 25.4 61.8C28.8667 57.1333 33.3333 53.4667 38.8 50.8C44.2667 48.1333 50.2667 46.8 56.8 46.8C66 46.8 74.1333 49.0001 81.2 53.4001C88.4 57.8001 94 63.8001 98 71.4001C102.133 79.0001 104.2 87.6668 104.2 97.4001C104.2 107.133 102.133 115.8 98 123.4C94 131 88.4 137 81.2 141.4C74.1333 145.8 66 148 56.8 148ZM51.2001 120.4C55.6001 120.4 59.4 119.4 62.6 117.4C65.9333 115.4 68.5333 112.667 70.4 109.2C72.2667 105.733 73.2 101.8 73.2 97.4001C73.2 92.8668 72.2667 88.8668 70.4 85.4001C68.5333 81.9334 65.9333 79.2668 62.6 77.4001C59.4 75.4001 55.6668 74.4001 51.4001 74.4001C47.1334 74.4001 43.3333 75.4001 40 77.4001C36.8 79.2668 34.2668 81.9334 32.4001 85.4001C30.5334 88.8668 29.6 92.8668 29.6 97.4001C29.6 101.8 30.4668 105.733 32.2001 109.2C34.0668 112.667 36.6667 115.4 40 117.4C43.3333 119.4 47.0668 120.4 51.2001 120.4ZM0.800049 187V48.8H31.4V73.8001L26.4 97.4001L31 121V187H0.800049ZM160.595 148C151.662 148 143.662 145.8 136.595 141.4C129.662 137 124.129 131 119.995 123.4C115.995 115.8 113.995 107.133 113.995 97.4001C113.995 87.6668 115.995 79.0001 119.995 71.4001C124.129 63.8001 129.662 57.8001 136.595 53.4001C143.662 49.0001 151.662 46.8 160.595 46.8C167.129 46.8 172.995 48.0667 178.195 50.6C183.529 53.1333 187.862 56.6668 191.195 61.2001C194.529 65.6001 196.395 70.6668 196.795 76.4001V118.4C196.395 124.133 194.529 129.267 191.195 133.8C187.995 138.2 183.729 141.667 178.395 144.2C173.062 146.733 167.129 148 160.595 148ZM166.795 120.4C173.329 120.4 178.595 118.267 182.595 114C186.595 109.6 188.595 104.067 188.595 97.4001C188.595 92.8668 187.662 88.8668 185.795 85.4001C184.062 81.9334 181.529 79.2668 178.195 77.4001C174.995 75.4001 171.262 74.4001 166.995 74.4001C162.729 74.4001 158.929 75.4001 155.595 77.4001C152.395 79.2668 149.795 81.9334 147.795 85.4001C145.929 88.8668 144.995 92.8668 144.995 97.4001C144.995 101.8 145.929 105.733 147.795 109.2C149.662 112.667 152.262 115.4 155.595 117.4C158.929 119.4 162.662 120.4 166.795 120.4ZM187.395 146V119.8L191.995 96.2001L187.395 72.6001V48.8H217.395V146H187.395ZM239.191 146V0.800049H269.791V146H239.191ZM291.589 146V48.8H322.189V146H291.589ZM353.789 146V89.2001C353.789 84.2668 352.256 80.4668 349.189 77.8001C346.256 75.0001 342.589 73.6001 338.189 73.6001C335.122 73.6001 332.389 74.2668 329.989 75.6001C327.589 76.8001 325.656 78.5334 324.189 80.8001C322.856 83.0668 322.189 85.8668 322.189 89.2001L310.389 84.0001C310.389 76.2668 312.056 69.6667 315.389 64.2C318.722 58.6 323.256 54.3334 328.989 51.4001C334.722 48.3334 341.189 46.8 348.389 46.8C355.189 46.8 361.256 48.3334 366.589 51.4001C372.056 54.4668 376.389 58.7333 379.589 64.2C382.789 69.6667 384.389 76.2001 384.389 83.8001V146H353.789ZM415.989 146V89.2001C415.989 84.2668 414.456 80.4668 411.389 77.8001C408.456 75.0001 404.789 73.6001 400.389 73.6001C397.322 73.6001 394.589 74.2668 392.189 75.6001C389.789 76.8001 387.856 78.5334 386.389 80.8001C385.056 83.0668 384.389 85.8668 384.389 89.2001L366.789 86.8001C367.056 78.5334 368.989 71.4668 372.589 65.6001C376.322 59.6001 381.189 55 387.189 51.8C393.322 48.4667 400.189 46.8 407.789 46.8C415.256 46.8 421.856 48.4 427.589 51.6C433.456 54.6667 438.056 59.1334 441.389 65.0001C444.856 70.7334 446.589 77.6668 446.589 85.8001V146H415.989ZM501.848 148.4C496.115 148.4 490.448 147.667 484.848 146.2C479.382 144.733 474.248 142.667 469.448 140C464.782 137.2 460.782 134 457.448 130.4L474.848 112.8C478.048 116.267 481.848 119 486.248 121C490.648 122.867 495.448 123.8 500.648 123.8C504.248 123.8 506.982 123.267 508.848 122.2C510.848 121.133 511.848 119.667 511.848 117.8C511.848 115.4 510.648 113.6 508.248 112.4C505.982 111.067 503.048 109.933 499.448 109C495.848 107.933 492.048 106.8 488.048 105.6C484.048 104.4 480.248 102.733 476.648 100.6C473.048 98.4668 470.115 95.5334 467.848 91.8001C465.582 87.9334 464.448 83.0668 464.448 77.2001C464.448 70.9334 466.048 65.5333 469.248 61C472.448 56.3333 476.982 52.6667 482.848 50C488.715 47.3333 495.582 46 503.448 46C511.715 46 519.315 47.4668 526.248 50.4001C533.315 53.2001 539.048 57.4 543.448 63L526.048 80.6001C522.982 77.0001 519.515 74.4668 515.648 73.0001C511.915 71.5334 508.248 70.8001 504.648 70.8001C501.182 70.8001 498.582 71.3334 496.848 72.4001C495.115 73.3334 494.248 74.7334 494.248 76.6001C494.248 78.6001 495.382 80.2001 497.648 81.4001C499.915 82.6001 502.848 83.6668 506.448 84.6001C510.048 85.5334 513.848 86.6668 517.848 88.0001C521.848 89.3334 525.648 91.1334 529.248 93.4001C532.848 95.6668 535.782 98.7334 538.048 102.6C540.315 106.333 541.448 111.267 541.448 117.4C541.448 126.867 537.848 134.4 530.648 140C523.582 145.6 513.982 148.4 501.848 148.4ZM577.5 148.2C572.3 148.2 567.967 146.4 564.5 142.8C561.033 139.2 559.3 134.867 559.3 129.8C559.3 124.467 561.033 120.067 564.5 116.6C567.967 113 572.3 111.2 577.5 111.2C582.833 111.2 587.167 113 590.5 116.6C593.967 120.067 595.7 124.467 595.7 129.8C595.7 134.867 593.967 139.2 590.5 142.8C587.167 146.4 582.833 148.2 577.5 148.2Z" fill="black"/>
</g>
<defs>
<clipPath id="clip0_204_453">
<rect width="596" height="187" fill="white"/>
</clipPath>
</defs>
</svg>
