<svg width="100%" height="100%" viewBox="0 0 200 39" fill="none" xmlns="http://www.w3.org/2000/svg">
<path d="M11.36 30.4C10.0533 30.4 8.85333 30.1467 7.76 29.64C6.66667 29.1333 5.77333 28.44 5.08 27.56C4.38667 26.6533 3.98667 25.6267 3.88 24.48V16.28C3.98667 15.1333 4.38667 14.0933 5.08 13.16C5.77333 12.2267 6.66667 11.4933 7.76 10.96C8.85333 10.4267 10.0533 10.16 11.36 10.16C13.2 10.16 14.8267 10.6 16.24 11.48C17.68 12.36 18.8 13.56 19.6 15.08C20.4267 16.6 20.84 18.3333 20.84 20.28C20.84 22.2267 20.4267 23.96 19.6 25.48C18.8 27 17.68 28.2 16.24 29.08C14.8267 29.96 13.2 30.4 11.36 30.4ZM10.24 24.88C11.12 24.88 11.88 24.68 12.52 24.28C13.1867 23.88 13.7067 23.3333 14.08 22.64C14.4533 21.9467 14.64 21.16 14.64 20.28C14.64 19.3733 14.4533 18.5733 14.08 17.88C13.7067 17.1867 13.1867 16.6533 12.52 16.28C11.88 15.88 11.1333 15.68 10.28 15.68C9.42667 15.68 8.66667 15.88 8 16.28C7.36 16.6533 6.85333 17.1867 6.48 17.88C6.10667 18.5733 5.92 19.3733 5.92 20.28C5.92 21.16 6.09333 21.9467 6.44 22.64C6.81333 23.3333 7.33333 23.88 8 24.28C8.66667 24.68 9.41333 24.88 10.24 24.88ZM0.16 38.2V10.56H6.28V15.56L5.28 20.28L6.2 25V38.2H0.16ZM32.0691 30.4C30.2824 30.4 28.6824 29.96 27.2691 29.08C25.8824 28.2 24.7757 27 23.9491 25.48C23.1491 23.96 22.7491 22.2267 22.7491 20.28C22.7491 18.3333 23.1491 16.6 23.9491 15.08C24.7757 13.56 25.8824 12.36 27.2691 11.48C28.6824 10.6 30.2824 10.16 32.0691 10.16C33.3757 10.16 34.5491 10.4133 35.5891 10.92C36.6557 11.4267 37.5224 12.1333 38.1891 13.04C38.8557 13.92 39.2291 14.9333 39.3091 16.08V24.48C39.2291 25.6267 38.8557 26.6533 38.1891 27.56C37.5491 28.44 36.6957 29.1333 35.6291 29.64C34.5624 30.1467 33.3757 30.4 32.0691 30.4ZM33.3091 24.88C34.6157 24.88 35.6691 24.4533 36.4691 23.6C37.2691 22.72 37.6691 21.6133 37.6691 20.28C37.6691 19.3733 37.4824 18.5733 37.1091 17.88C36.7624 17.1867 36.2557 16.6533 35.5891 16.28C34.9491 15.88 34.2024 15.68 33.3491 15.68C32.4957 15.68 31.7357 15.88 31.0691 16.28C30.4291 16.6533 29.9091 17.1867 29.5091 17.88C29.1357 18.5733 28.9491 19.3733 28.9491 20.28C28.9491 21.16 29.1357 21.9467 29.5091 22.64C29.8824 23.3333 30.4024 23.88 31.0691 24.28C31.7357 24.68 32.4824 24.88 33.3091 24.88ZM37.4291 30V24.76L38.3491 20.04L37.4291 15.32V10.56H43.4291V30H37.4291ZM47.7381 30V0.96H53.8581V30H47.7381ZM58.1678 30V10.56H64.2878V30H58.1678ZM70.6078 30V18.64C70.6078 17.6533 70.3011 16.8933 69.6878 16.36C69.1011 15.8 68.3678 15.52 67.4878 15.52C66.8745 15.52 66.3278 15.6533 65.8478 15.92C65.3678 16.16 64.9811 16.5067 64.6878 16.96C64.4211 17.4133 64.2878 17.9733 64.2878 18.64L61.9278 17.6C61.9278 16.0533 62.2611 14.7333 62.9278 13.64C63.5945 12.52 64.5011 11.6667 65.6478 11.08C66.7945 10.4667 68.0878 10.16 69.5278 10.16C70.8878 10.16 72.1011 10.4667 73.1678 11.08C74.2611 11.6933 75.1278 12.5467 75.7678 13.64C76.4078 14.7333 76.7278 16.04 76.7278 17.56V30H70.6078ZM83.0478 30V18.64C83.0478 17.6533 82.7411 16.8933 82.1278 16.36C81.5411 15.8 80.8078 15.52 79.9278 15.52C79.3145 15.52 78.7678 15.6533 78.2878 15.92C77.8078 16.16 77.4211 16.5067 77.1278 16.96C76.8611 17.4133 76.7278 17.9733 76.7278 18.64L73.2078 18.16C73.2611 16.5067 73.6478 15.0933 74.3678 13.92C75.1145 12.72 76.0878 11.8 77.2878 11.16C78.5145 10.4933 79.8878 10.16 81.4078 10.16C82.9011 10.16 84.2211 10.48 85.3678 11.12C86.5411 11.7333 87.4611 12.6267 88.1278 13.8C88.8211 14.9467 89.1678 16.3333 89.1678 17.96V30H83.0478ZM100.17 30.48C99.023 30.48 97.8897 30.3333 96.7697 30.04C95.6764 29.7467 94.6497 29.3333 93.6897 28.8C92.7564 28.24 91.9564 27.6 91.2897 26.88L94.7697 23.36C95.4097 24.0533 96.1697 24.6 97.0497 25C97.9297 25.3733 98.8897 25.56 99.9297 25.56C100.65 25.56 101.196 25.4533 101.57 25.24C101.97 25.0267 102.17 24.7333 102.17 24.36C102.17 23.88 101.93 23.52 101.45 23.28C100.996 23.0133 100.41 22.7867 99.6897 22.6C98.9697 22.3867 98.2097 22.16 97.4097 21.92C96.6097 21.68 95.8497 21.3467 95.1297 20.92C94.4097 20.4933 93.823 19.9067 93.3697 19.16C92.9164 18.3867 92.6897 17.4133 92.6897 16.24C92.6897 14.9867 93.0097 13.9067 93.6497 13C94.2897 12.0667 95.1964 11.3333 96.3697 10.8C97.543 10.2667 98.9164 10 100.49 10C102.143 10 103.663 10.2933 105.05 10.88C106.463 11.44 107.61 12.28 108.49 13.4L105.01 16.92C104.396 16.2 103.703 15.6933 102.93 15.4C102.183 15.1067 101.45 14.96 100.73 14.96C100.036 14.96 99.5164 15.0667 99.1697 15.28C98.823 15.4667 98.6497 15.7467 98.6497 16.12C98.6497 16.52 98.8764 16.84 99.3297 17.08C99.783 17.32 100.37 17.5333 101.09 17.72C101.81 17.9067 102.57 18.1333 103.37 18.4C104.17 18.6667 104.93 19.0267 105.65 19.48C106.37 19.9333 106.956 20.5467 107.41 21.32C107.863 22.0667 108.09 23.0533 108.09 24.28C108.09 26.1733 107.37 27.68 105.93 28.8C104.516 29.92 102.596 30.48 100.17 30.48ZM115.25 30.44C114.21 30.44 113.343 30.08 112.65 29.36C111.957 28.64 111.61 27.7733 111.61 26.76C111.61 25.6933 111.957 24.8133 112.65 24.12C113.343 23.4 114.21 23.04 115.25 23.04C116.317 23.04 117.183 23.4 117.85 24.12C118.543 24.8133 118.89 25.6933 118.89 26.76C118.89 27.7733 118.543 28.64 117.85 29.36C117.183 30.08 116.317 30.44 115.25 30.44ZM134.602 30.4C133.296 30.4 132.096 30.1333 131.002 29.6C129.909 29.04 129.016 28.3067 128.322 27.4C127.629 26.4667 127.229 25.4267 127.122 24.28V16.08C127.229 14.9333 127.629 13.92 128.322 13.04C129.016 12.1333 129.909 11.4267 131.002 10.92C132.096 10.4133 133.296 10.16 134.602 10.16C136.442 10.16 138.069 10.6 139.482 11.48C140.922 12.36 142.042 13.56 142.842 15.08C143.669 16.6 144.082 18.3333 144.082 20.28C144.082 22.2267 143.669 23.96 142.842 25.48C142.042 27 140.922 28.2 139.482 29.08C138.069 29.96 136.442 30.4 134.602 30.4ZM133.522 24.88C134.376 24.88 135.122 24.68 135.762 24.28C136.429 23.88 136.949 23.3333 137.322 22.64C137.696 21.9467 137.882 21.16 137.882 20.28C137.882 19.3733 137.696 18.5733 137.322 17.88C136.949 17.1867 136.429 16.6533 135.762 16.28C135.122 15.88 134.376 15.68 133.522 15.68C132.669 15.68 131.909 15.88 131.242 16.28C130.576 16.6533 130.056 17.1867 129.682 17.88C129.336 18.5733 129.162 19.3733 129.162 20.28C129.162 21.1867 129.349 21.9867 129.722 22.68C130.096 23.3733 130.602 23.92 131.242 24.32C131.909 24.6933 132.669 24.88 133.522 24.88ZM123.402 30V0.96H129.522V15.32L128.522 20.04L129.442 24.76V30H123.402ZM147.191 30V0.96H153.311V30H147.191ZM166.981 30.44C164.981 30.44 163.168 30 161.541 29.12C159.941 28.2133 158.674 26.9867 157.741 25.44C156.808 23.8933 156.341 22.16 156.341 20.24C156.341 18.32 156.808 16.6 157.741 15.08C158.674 13.56 159.941 12.36 161.541 11.48C163.141 10.5733 164.954 10.12 166.981 10.12C169.008 10.12 170.821 10.56 172.421 11.44C174.021 12.32 175.288 13.5333 176.221 15.08C177.154 16.6 177.621 18.32 177.621 20.24C177.621 22.16 177.154 23.8933 176.221 25.44C175.288 26.9867 174.021 28.2133 172.421 29.12C170.821 30 169.008 30.44 166.981 30.44ZM166.981 24.88C167.861 24.88 168.634 24.6933 169.301 24.32C169.968 23.92 170.474 23.3733 170.821 22.68C171.194 21.96 171.381 21.1467 171.381 20.24C171.381 19.3333 171.194 18.5467 170.821 17.88C170.448 17.1867 169.928 16.6533 169.261 16.28C168.621 15.88 167.861 15.68 166.981 15.68C166.128 15.68 165.368 15.88 164.701 16.28C164.034 16.6533 163.514 17.1867 163.141 17.88C162.768 18.5733 162.581 19.3733 162.581 20.28C162.581 21.16 162.768 21.96 163.141 22.68C163.514 23.3733 164.034 23.92 164.701 24.32C165.368 24.6933 166.128 24.88 166.981 24.88ZM188.908 38.72C186.774 38.72 184.894 38.3467 183.268 37.6C181.668 36.88 180.401 35.8533 179.468 34.52L183.228 30.76C183.921 31.5867 184.694 32.2133 185.548 32.64C186.428 33.0667 187.481 33.28 188.708 33.28C190.228 33.28 191.414 32.9067 192.268 32.16C193.148 31.4133 193.588 30.36 193.588 29V24.04L194.628 19.8L193.708 15.56V10.56H199.708V28.84C199.708 30.84 199.241 32.5733 198.308 34.04C197.374 35.5067 196.094 36.6533 194.468 37.48C192.841 38.3067 190.988 38.72 188.908 38.72ZM188.628 29.4C186.841 29.4 185.254 28.9733 183.868 28.12C182.481 27.2667 181.388 26.1067 180.588 24.64C179.788 23.1733 179.388 21.5467 179.388 19.76C179.388 17.9467 179.788 16.32 180.588 14.88C181.388 13.4133 182.481 12.2667 183.868 11.44C185.254 10.5867 186.841 10.16 188.628 10.16C189.961 10.16 191.148 10.4133 192.188 10.92C193.254 11.4 194.108 12.0933 194.748 13C195.414 13.88 195.788 14.9067 195.868 16.08V23.48C195.788 24.6267 195.414 25.6533 194.748 26.56C194.108 27.44 193.254 28.1333 192.188 28.64C191.121 29.1467 189.934 29.4 188.628 29.4ZM189.788 23.96C190.641 23.96 191.374 23.7733 191.988 23.4C192.628 23.0267 193.108 22.5333 193.428 21.92C193.774 21.28 193.948 20.56 193.948 19.76C193.948 18.96 193.774 18.24 193.428 17.6C193.108 16.96 192.628 16.4533 191.988 16.08C191.374 15.7067 190.641 15.52 189.788 15.52C188.961 15.52 188.228 15.7067 187.588 16.08C186.948 16.4533 186.454 16.96 186.108 17.6C185.761 18.24 185.588 18.96 185.588 19.76C185.588 20.5067 185.761 21.2133 186.108 21.88C186.454 22.52 186.934 23.0267 187.548 23.4C188.188 23.7733 188.934 23.96 189.788 23.96Z" fill="black"/>
</svg>
