<svg width="142" height="143" viewBox="0 0 142 143" fill="none" xmlns="http://www.w3.org/2000/svg">
<path d="M142 71.5C142 110.712 110.212 142.5 71 142.5C31.7878 142.5 0 110.712 0 71.5C0 32.2878 31.7878 0.5 71 0.5C110.212 0.5 142 32.2878 142 71.5Z" fill="#E9ECEF"/>
<path fill-rule="evenodd" clip-rule="evenodd" d="M17.5632 118.25C26.0178 100.981 43.8304 89.25 71.0009 89.25C98.1713 89.25 115.984 100.981 124.439 118.25C111.425 133.114 92.3089 142.5 71.0009 142.5C49.6929 142.5 30.5772 133.114 17.5632 118.25Z" fill="#CED4DA"/>
<circle cx="71" cy="54.3436" r="25.662" fill="#CED4DA"/>
<circle cx="122" cy="121.5" r="19.5" fill="white" stroke="#DEE2E6"/>
<path d="M124.12 113.5L125.95 115.5H130V127.5H114V115.5H118.05L119.88 113.5H124.12ZM125 111.5H119L117.17 113.5H114C112.9 113.5 112 114.4 112 115.5V127.5C112 128.6 112.9 129.5 114 129.5H130C131.1 129.5 132 128.6 132 127.5V115.5C132 114.4 131.1 113.5 130 113.5H126.83L125 111.5ZM122 118.5C123.65 118.5 125 119.85 125 121.5C125 123.15 123.65 124.5 122 124.5C120.35 124.5 119 123.15 119 121.5C119 119.85 120.35 118.5 122 118.5ZM122 116.5C119.24 116.5 117 118.74 117 121.5C117 124.26 119.24 126.5 122 126.5C124.76 126.5 127 124.26 127 121.5C127 118.74 124.76 116.5 122 116.5Z" fill="#868E96"/>
</svg>
