<svg width="30" height="24" viewBox="0 0 30 24" fill="none" xmlns="http://www.w3.org/2000/svg">
<g id="logo">
<g id="Group 87">
<g id="Union">
<path d="M5.52703 11.4879C8.57953 11.4879 11.0541 9.00916 11.0541 5.95152C11.0541 2.89388 8.57953 0.415176 5.52703 0.415176C2.47454 0.415176 0 2.89388 0 5.95152C0 9.00916 2.47454 11.4879 5.52703 11.4879Z" fill="#1A9B6F"/>
<path d="M24.2969 24C27.3494 24 29.824 21.5213 29.824 18.4637C29.824 15.406 27.3494 12.9273 24.2969 12.9273C21.2444 12.9273 18.7699 15.406 18.7699 18.4637C18.7699 21.5213 21.2444 24 24.2969 24Z" fill="#1A9B6F"/>
<path d="M11.9384 0.415176H24.2968C27.3493 0.415176 29.8239 2.89388 29.8239 5.95152C29.8239 9.00916 27.3493 11.4879 24.2968 11.4879H11.9384V0.415176Z" fill="#19DB7B"/>
<path d="M5.52703 12.9273C2.47454 12.9273 0 15.406 0 18.4637C0 21.5213 2.47454 24 5.52704 24H12.3584C15.4109 24 17.8855 21.5213 17.8855 18.4637C17.8855 15.406 15.4109 12.9273 12.3584 12.9273H5.52703Z" fill="#2F4CA9"/>
</g>
</g>
</g>
</svg>
