<svg width="30" height="24" viewBox="0 0 30 24" fill="none" xmlns="http://www.w3.org/2000/svg">
<g id="symbol">
<g id="Group 87">
<g id="Union">
<path d="M5.52703 11.4887C8.57953 11.4887 11.0541 9.01 11.0541 5.95236C11.0541 2.89472 8.57953 0.416016 5.52703 0.416016C2.47454 0.416016 0 2.89472 0 5.95236C0 9.01 2.47454 11.4887 5.52703 11.4887Z" fill="#1A9B6F"/>
<path d="M24.2969 24.0008C27.3494 24.0008 29.824 21.5221 29.824 18.4645C29.824 15.4069 27.3494 12.9282 24.2969 12.9282C21.2444 12.9282 18.7699 15.4069 18.7699 18.4645C18.7699 21.5221 21.2444 24.0008 24.2969 24.0008Z" fill="#1A9B6F"/>
<path d="M11.9384 0.416016H24.2968C27.3493 0.416016 29.8239 2.89472 29.8239 5.95236C29.8239 9.01 27.3493 11.4887 24.2968 11.4887H11.9384V0.416016Z" fill="#19DB7B"/>
<path d="M5.52703 12.9282C2.47454 12.9282 0 15.4069 0 18.4645C0 21.5221 2.47454 24.0008 5.52704 24.0008H12.3584C15.4109 24.0008 17.8855 21.5221 17.8855 18.4645C17.8855 15.4069 15.4109 12.9282 12.3584 12.9282H5.52703Z" fill="#2F4CA9"/>
</g>
</g>
</g>
</svg>
