<svg width="16" height="16" viewBox="0 0 16 16" fill="none" xmlns="http://www.w3.org/2000/svg">
<g id="users-profiles-03">
<path id="Icon" d="M1.6001 12.1445C2.33253 10.9229 3.93777 10.0868 6.44218 10.0868C8.94658 10.0868 10.5518 10.9229 11.2843 12.1445M11.7476 9.16037C13.0738 9.8235 13.737 10.4866 14.4001 11.8129M10.3682 4.09173C10.9923 4.42743 11.4165 5.08661 11.4165 5.84487C11.4165 6.58122 11.0165 7.22413 10.4218 7.5681M8.43155 5.84485C8.43155 6.94355 7.54088 7.83423 6.44218 7.83423C5.34347 7.83423 4.4528 6.94355 4.4528 5.84485C4.4528 4.74614 5.34347 3.85547 6.44218 3.85547C7.54088 3.85547 8.43155 4.74614 8.43155 5.84485Z" stroke="#495057" stroke-width="1.5" stroke-linecap="round"/>
</g>
</svg>
